<svg width="147" height="47" viewBox="0 0 147 47" fill="none" xmlns="http://www.w3.org/2000/svg">
<rect x="25.7001" y="6.5144" width="39.7089" height="10.4497" rx="5.22485" transform="rotate(90 25.7001 6.5144)" fill="#6C5313"/>
<rect x="23.6101" y="0.244629" width="12.5397" height="6.26982" rx="3.13491" transform="rotate(90 23.6101 0.244629)" fill="#6C5313"/>
<rect x="23.6101" y="0.244629" width="12.5397" height="6.26982" rx="3.13491" transform="rotate(90 23.6101 0.244629)" fill="url(#paint0_linear_83_76)" fill-opacity="0.2"/>
<rect x="130.197" y="2.33459" width="10.4497" height="6.26982" rx="3.13491" transform="rotate(90 130.197 2.33459)" fill="#6C5313"/>
<rect x="130.197" y="2.33459" width="10.4497" height="6.26982" rx="3.13491" transform="rotate(90 130.197 2.33459)" fill="url(#paint1_linear_83_76)" fill-opacity="0.2"/>
<rect x="130.197" y="0.244629" width="12.5397" height="6.26982" rx="3.13491" transform="rotate(90 130.197 0.244629)" fill="#6C5313"/>
<rect x="130.197" y="0.244629" width="12.5397" height="6.26982" rx="3.13491" transform="rotate(90 130.197 0.244629)" fill="url(#paint2_linear_83_76)" fill-opacity="0.2"/>
<rect x="132.287" y="6.5144" width="39.7089" height="10.4497" rx="5.22485" transform="rotate(90 132.287 6.5144)" fill="#6C5313"/>
<rect x="77.9487" y="6.5144" width="39.7089" height="10.4497" rx="5.22485" transform="rotate(90 77.9487 6.5144)" fill="#6C5313"/>
<rect x="0.62085" y="6.5144" width="146.296" height="10.4497" rx="5.22485" fill="#9B7923"/>
<rect x="0.62085" y="0.244629" width="146.296" height="4.17988" rx="2.08994" fill="#AD8726"/>
<rect x="0.62085" y="0.244629" width="146.296" height="4.17988" rx="2.08994" fill="url(#paint3_linear_83_76)" fill-opacity="0.2"/>
<rect x="0.62085" y="21.1442" width="146.296" height="10.4497" rx="5.22485" fill="#9B7923"/>
<rect x="0.62085" y="35.7737" width="146.296" height="10.4497" rx="5.22485" fill="#9B7923"/>
<circle cx="20.4754" cy="11.7393" r="1.04497" fill="#2B2B2B"/>
<circle cx="20.4754" cy="11.7393" r="1.04497" fill="url(#paint4_radial_83_76)" fill-opacity="0.2"/>
<circle cx="20.4754" cy="26.3688" r="1.04497" fill="#2B2B2B"/>
<circle cx="20.4754" cy="26.3688" r="1.04497" fill="url(#paint5_radial_83_76)" fill-opacity="0.2"/>
<circle cx="20.4754" cy="40.9986" r="1.04497" fill="#2B2B2B"/>
<circle cx="20.4754" cy="40.9986" r="1.04497" fill="url(#paint6_radial_83_76)" fill-opacity="0.2"/>
<circle cx="72.7238" cy="11.7393" r="1.04497" fill="#2B2B2B"/>
<circle cx="72.7238" cy="11.7393" r="1.04497" fill="url(#paint7_radial_83_76)" fill-opacity="0.2"/>
<circle cx="72.7238" cy="26.3688" r="1.04497" fill="#2B2B2B"/>
<circle cx="72.7238" cy="26.3688" r="1.04497" fill="url(#paint8_radial_83_76)" fill-opacity="0.2"/>
<circle cx="72.7238" cy="40.9986" r="1.04497" fill="#2B2B2B"/>
<circle cx="72.7238" cy="40.9986" r="1.04497" fill="url(#paint9_radial_83_76)" fill-opacity="0.2"/>
<circle cx="127.062" cy="11.7393" r="1.04497" fill="#2B2B2B"/>
<circle cx="127.062" cy="11.7393" r="1.04497" fill="url(#paint10_radial_83_76)" fill-opacity="0.2"/>
<circle cx="127.062" cy="26.3688" r="1.04497" fill="#2B2B2B"/>
<circle cx="127.062" cy="26.3688" r="1.04497" fill="url(#paint11_radial_83_76)" fill-opacity="0.2"/>
<circle cx="127.062" cy="40.9986" r="1.04497" fill="#2B2B2B"/>
<circle cx="127.062" cy="40.9986" r="1.04497" fill="url(#paint12_radial_83_76)" fill-opacity="0.2"/>
<defs>
<linearGradient id="paint0_linear_83_76" x1="24.8641" y1="3.37954" x2="29.8799" y2="3.37954" gradientUnits="userSpaceOnUse">
<stop/>
<stop offset="1" stop-opacity="0"/>
</linearGradient>
<linearGradient id="paint1_linear_83_76" x1="131.242" y1="5.46951" x2="135.422" y2="5.46951" gradientUnits="userSpaceOnUse">
<stop/>
<stop offset="1" stop-opacity="0"/>
</linearGradient>
<linearGradient id="paint2_linear_83_76" x1="131.451" y1="3.37954" x2="136.467" y2="3.37954" gradientUnits="userSpaceOnUse">
<stop/>
<stop offset="1" stop-opacity="0"/>
</linearGradient>
<linearGradient id="paint3_linear_83_76" x1="73.7688" y1="0.244629" x2="73.7688" y2="4.42451" gradientUnits="userSpaceOnUse">
<stop/>
<stop offset="1" stop-opacity="0"/>
</linearGradient>
<radialGradient id="paint4_radial_83_76" cx="0" cy="0" r="1" gradientUnits="userSpaceOnUse" gradientTransform="translate(20.4754 11.7393) rotate(90) scale(0.696647)">
<stop stop-opacity="0"/>
<stop offset="1"/>
</radialGradient>
<radialGradient id="paint5_radial_83_76" cx="0" cy="0" r="1" gradientUnits="userSpaceOnUse" gradientTransform="translate(20.4754 26.3688) rotate(90) scale(0.696647)">
<stop stop-opacity="0"/>
<stop offset="1"/>
</radialGradient>
<radialGradient id="paint6_radial_83_76" cx="0" cy="0" r="1" gradientUnits="userSpaceOnUse" gradientTransform="translate(20.4754 40.9986) rotate(90) scale(0.696647)">
<stop stop-opacity="0"/>
<stop offset="1"/>
</radialGradient>
<radialGradient id="paint7_radial_83_76" cx="0" cy="0" r="1" gradientUnits="userSpaceOnUse" gradientTransform="translate(72.7238 11.7393) rotate(90) scale(0.696647)">
<stop stop-opacity="0"/>
<stop offset="1"/>
</radialGradient>
<radialGradient id="paint8_radial_83_76" cx="0" cy="0" r="1" gradientUnits="userSpaceOnUse" gradientTransform="translate(72.7238 26.3688) rotate(90) scale(0.696647)">
<stop stop-opacity="0"/>
<stop offset="1"/>
</radialGradient>
<radialGradient id="paint9_radial_83_76" cx="0" cy="0" r="1" gradientUnits="userSpaceOnUse" gradientTransform="translate(72.7238 40.9986) rotate(90) scale(0.696647)">
<stop stop-opacity="0"/>
<stop offset="1"/>
</radialGradient>
<radialGradient id="paint10_radial_83_76" cx="0" cy="0" r="1" gradientUnits="userSpaceOnUse" gradientTransform="translate(127.062 11.7393) rotate(90) scale(0.696647)">
<stop stop-opacity="0"/>
<stop offset="1"/>
</radialGradient>
<radialGradient id="paint11_radial_83_76" cx="0" cy="0" r="1" gradientUnits="userSpaceOnUse" gradientTransform="translate(127.062 26.3688) rotate(90) scale(0.696647)">
<stop stop-opacity="0"/>
<stop offset="1"/>
</radialGradient>
<radialGradient id="paint12_radial_83_76" cx="0" cy="0" r="1" gradientUnits="userSpaceOnUse" gradientTransform="translate(127.062 40.9986) rotate(90) scale(0.696647)">
<stop stop-opacity="0"/>
<stop offset="1"/>
</radialGradient>
</defs>
</svg>
