<svg width="9" height="19" viewBox="0 0 9 19" fill="none" xmlns="http://www.w3.org/2000/svg">
<rect x="0.0898438" y="0.782227" width="8.91005" height="17.8201" rx="2.67302" fill="#CD8632"/>
<path d="M0.5354 3.45505C0.5354 2.22483 1.53269 1.22754 2.76291 1.22754H6.32693C7.55715 1.22754 8.55445 2.22483 8.55445 3.45505V15.9291C8.55445 17.1593 7.55715 18.1566 6.32693 18.1566H2.76291C1.53269 18.1566 0.5354 17.1593 0.5354 15.9291V3.45505Z" fill="#838383" fill-opacity="0.47"/>
<rect x="0.980713" y="1.67334" width="7.12804" height="16.0381" rx="1.78201" fill="#595959"/>
<rect x="0.980713" y="1.67334" width="7.12804" height="16.0381" rx="1.78201" fill="url(#paint0_radial_270_4552)" fill-opacity="0.45"/>
<g opacity="0.6">
<rect x="1.87183" y="4.22266" width="1.78201" height="1.78201" transform="rotate(-25.495 1.87183 4.22266)" fill="#5F2F2F"/>
<rect x="5.104" y="9.69238" width="1.78201" height="1.78201" transform="rotate(18.2887 5.104 9.69238)" fill="#5F2F2F"/>
<rect x="2.43115" y="9.69238" width="0.912223" height="1.78201" transform="rotate(18.2887 2.43115 9.69238)" fill="#78823A"/>
<rect x="5.48901" y="14.3838" width="0.912223" height="1.78201" transform="rotate(-14.107 5.48901 14.3838)" fill="#78823A"/>
<rect x="2.43115" y="14.1475" width="1.78201" height="1.78201" transform="rotate(18.2887 2.43115 14.1475)" fill="#31401F"/>
<rect x="4.54468" y="5.91309" width="1.78201" height="1.78201" transform="rotate(-22.2875 4.54468 5.91309)" fill="#31401F"/>
</g>
<defs>
<radialGradient id="paint0_radial_270_4552" cx="0" cy="0" r="1" gradientUnits="userSpaceOnUse" gradientTransform="translate(4.54473 9.69239) rotate(90) scale(8.01905 3.56402)">
<stop/>
<stop offset="1" stop-opacity="0"/>
</radialGradient>
</defs>
</svg>
