<svg width="69" height="69" viewBox="0 0 69 69" fill="none" xmlns="http://www.w3.org/2000/svg">
<circle cx="34.6875" cy="34.6875" r="28.4375" fill="#C69E37"/>
<rect x="66.561" y="30.834" width="2.4375" height="5.6875" rx="1.21875" transform="rotate(87.3983 66.561 30.834)" fill="#972929"/>
<rect x="66.561" y="30.834" width="2.4375" height="5.6875" rx="1.21875" transform="rotate(87.3983 66.561 30.834)" fill="url(#paint0_linear_266_3873)" fill-opacity="0.3"/>
<rect x="60.1494" y="54.5029" width="2.4375" height="5.6875" rx="1.21875" transform="rotate(129.002 60.1494 54.5029)" fill="#972929"/>
<rect x="60.1494" y="54.5029" width="2.4375" height="5.6875" rx="1.21875" transform="rotate(129.002 60.1494 54.5029)" fill="url(#paint1_linear_266_3873)" fill-opacity="0.3"/>
<rect x="23.0564" y="64.4277" width="2.4375" height="5.6875" rx="1.21875" transform="rotate(-153.486 23.0564 64.4277)" fill="#972929"/>
<rect x="23.0564" y="64.4277" width="2.4375" height="5.6875" rx="1.21875" transform="rotate(-153.486 23.0564 64.4277)" fill="url(#paint2_linear_266_3873)" fill-opacity="0.3"/>
<rect x="49.7188" y="7.0625" width="2.4375" height="5.6875" rx="1.21875" transform="rotate(30 49.7188 7.0625)" fill="#972929"/>
<rect x="49.7188" y="7.0625" width="2.4375" height="5.6875" rx="1.21875" transform="rotate(30 49.7188 7.0625)" fill="url(#paint3_linear_266_3873)" fill-opacity="0.3"/>
<rect x="13.5625" y="11.9775" width="2.4375" height="5.6875" rx="1.21875" transform="rotate(-43.104 13.5625 11.9775)" fill="#972929"/>
<rect x="13.5625" y="11.9775" width="2.4375" height="5.6875" rx="1.21875" transform="rotate(-43.104 13.5625 11.9775)" fill="url(#paint4_linear_266_3873)" fill-opacity="0.3"/>
<rect x="3.32861" y="37.8696" width="2.4375" height="5.6875" rx="1.21875" transform="rotate(-97.7474 3.32861 37.8696)" fill="#972929"/>
<rect x="3.32861" y="37.8696" width="2.4375" height="5.6875" rx="1.21875" transform="rotate(-97.7474 3.32861 37.8696)" fill="url(#paint5_linear_266_3873)" fill-opacity="0.3"/>
<path d="M55.8125 34.6875C55.8125 29.6471 54.0103 24.7728 50.7312 20.9447C47.4522 17.1167 42.9125 14.5872 37.9319 13.8131C32.9513 13.039 27.858 14.0713 23.5718 16.7235C19.2856 19.3757 16.0889 23.4731 14.5591 28.2757C13.0292 33.0783 13.267 38.2697 15.2294 42.9124C17.1919 47.5551 20.7497 51.3431 25.2604 53.5924C29.7711 55.8417 34.9374 56.4041 39.8265 55.1779C44.7155 53.9518 49.0049 51.0179 51.9203 46.9062" stroke="url(#paint6_radial_266_3873)" stroke-opacity="0.25" stroke-width="9.75"/>
<path d="M57.4375 34.6875C57.4375 29.2594 55.4966 24.0101 51.9654 19.8876C48.4341 15.7651 43.5452 13.0411 38.1815 12.2074C32.8177 11.3737 27.3326 12.4854 22.7167 15.3416C18.1008 18.1979 14.6582 22.6104 13.0107 27.7825C11.3632 32.9546 11.6192 38.5453 13.7327 43.5451C15.8461 48.5449 19.6776 52.6243 24.5353 55.0466C29.393 57.469 34.9567 58.0746 40.2218 56.7541C45.4869 55.4336 50.1063 52.2741 53.2459 47.8461" stroke="#2C2107" stroke-width="9.75"/>
<path d="M66.375 34.6875C66.375 27.1959 63.7207 19.9465 58.8831 14.2261C54.0455 8.5057 47.3376 4.68429 39.95 3.44011C32.5624 2.19593 24.9729 3.60947 18.5285 7.42983C12.0841 11.2502 7.20175 17.2303 4.74795 24.3087C2.29414 31.3871 2.42762 39.1059 5.12468 46.0953C7.82175 53.0846 12.908 58.8923 19.4806 62.4876C26.0532 66.0828 33.687 67.2331 41.0272 65.7343C48.3674 64.2354 54.9392 60.1844 59.5761 54.3001" stroke="#972929" stroke-width="4.0625" stroke-linecap="round"/>
<path d="M66.375 34.6875C66.375 27.1959 63.7207 19.9465 58.8831 14.2261C54.0455 8.5057 47.3376 4.68429 39.95 3.44011C32.5624 2.19593 24.9729 3.60947 18.5285 7.42983C12.0841 11.2502 7.20175 17.2303 4.74795 24.3087C2.29414 31.3871 2.42762 39.1059 5.12468 46.0953C7.82175 53.0846 12.908 58.8923 19.4806 62.4876C26.0532 66.0828 33.687 67.2331 41.0272 65.7343C48.3674 64.2354 54.9392 60.1844 59.5761 54.3001" stroke="url(#paint7_radial_266_3873)" stroke-opacity="0.25" stroke-width="4.0625" stroke-linecap="round"/>
<defs>
<linearGradient id="paint0_linear_266_3873" x1="67.7798" y1="30.834" x2="67.7798" y2="36.5215" gradientUnits="userSpaceOnUse">
<stop offset="0.1875"/>
<stop offset="1" stop-opacity="0"/>
</linearGradient>
<linearGradient id="paint1_linear_266_3873" x1="61.3682" y1="54.5029" x2="61.3682" y2="60.1904" gradientUnits="userSpaceOnUse">
<stop offset="0.1875"/>
<stop offset="1" stop-opacity="0"/>
</linearGradient>
<linearGradient id="paint2_linear_266_3873" x1="24.2751" y1="64.4277" x2="24.2751" y2="70.1152" gradientUnits="userSpaceOnUse">
<stop offset="0.1875"/>
<stop offset="1" stop-opacity="0"/>
</linearGradient>
<linearGradient id="paint3_linear_266_3873" x1="50.9375" y1="7.0625" x2="50.9375" y2="12.75" gradientUnits="userSpaceOnUse">
<stop offset="0.1875"/>
<stop offset="1" stop-opacity="0"/>
</linearGradient>
<linearGradient id="paint4_linear_266_3873" x1="14.7813" y1="11.9775" x2="14.7813" y2="17.665" gradientUnits="userSpaceOnUse">
<stop offset="0.1875"/>
<stop offset="1" stop-opacity="0"/>
</linearGradient>
<linearGradient id="paint5_linear_266_3873" x1="4.54736" y1="37.8696" x2="4.54736" y2="43.5571" gradientUnits="userSpaceOnUse">
<stop offset="0.1875"/>
<stop offset="1" stop-opacity="0"/>
</linearGradient>
<radialGradient id="paint6_radial_266_3873" cx="0" cy="0" r="1" gradientUnits="userSpaceOnUse" gradientTransform="translate(34.6875 34.6875) rotate(-90) scale(27.2188)">
<stop stop-opacity="0"/>
<stop offset="1"/>
</radialGradient>
<radialGradient id="paint7_radial_266_3873" cx="0" cy="0" r="1" gradientUnits="userSpaceOnUse" gradientTransform="translate(34.6875 34.6875) rotate(90) scale(33.7188)">
<stop offset="0.872725"/>
<stop offset="1" stop-opacity="0"/>
</radialGradient>
</defs>
</svg>
