<svg width="155" height="156" viewBox="0 0 155 156" fill="none" xmlns="http://www.w3.org/2000/svg">
<circle cx="77.3888" cy="77.7989" r="76.2829" fill="#E01916" stroke="white" stroke-width="2.08994"/>
<circle cx="78.4339" cy="78.8438" r="53.2935" fill="white"/>
<path d="M72.4047 47.9985H42.0473L38.1622 77.7723C40.5113 77.4092 42.9507 77.2277 46.2033 77.2277C57.9487 77.2277 62.918 81.6756 62.918 88.3929C62.918 95.4732 56.6839 99.1949 50.1787 99.1949C44.8481 99.1949 39.7885 97.4702 37.2587 96.1086L35 104.551C38.0719 106.275 43.7639 108 50.5401 108C64.996 108 74.302 98.8318 74.302 87.5759C74.302 80.4048 71.0494 75.4122 66.6223 72.5982C62.6469 69.9658 57.497 68.7857 52.3471 68.7857C50.6304 68.7857 49.4559 68.8765 48.1007 69.058L49.8173 57.2574H72.4047V47.9985Z" fill="black"/>
<path d="M104.22 47C90.4865 47 82.7165 59.3452 82.7165 77.6815C82.8068 95.6548 90.0348 108 103.587 108C117.591 108 125 96.1086 125 77.1369C125 59.7083 118.404 47 104.22 47ZM103.949 55.5327C110.634 55.5327 113.887 63.6116 113.887 77.3185C113.887 91.4792 110.454 99.4673 103.949 99.4673C97.8048 99.4673 93.8295 92.0238 93.9198 77.6815C93.8295 62.8854 97.9855 55.5327 103.949 55.5327Z" fill="black"/>
</svg>
