<svg width="156" height="156" viewBox="0 0 156 156" fill="none" xmlns="http://www.w3.org/2000/svg">
<circle cx="78.087" cy="77.677" r="76.2829" fill="#E01916" stroke="white" stroke-width="2.08994"/>
<circle cx="79.1321" cy="78.722" r="53.2935" fill="white"/>
<path d="M35.7029 102.553C38.8482 104.62 44.9592 106.597 52.0587 106.597C66.5274 106.597 74.7952 98.7785 74.7952 88.893C74.7952 80.9847 69.0437 75.5927 61.9442 74.3345V74.1548C69.1336 71.6385 72.7283 66.6059 72.7283 60.4949C72.7283 52.8562 66.5274 46.206 54.4852 46.206C47.4755 46.206 41.005 48.3628 37.6799 50.6994L40.1962 58.6976C42.6227 57.0799 47.3856 55.013 52.1486 55.013C58.5292 55.013 61.4948 58.3381 61.4948 62.2923C61.4948 68.1336 55.0244 70.4702 49.9019 70.4702H44.9592V78.5583H50.0817C56.8217 78.5583 63.2922 81.5239 63.2922 88.4437C63.382 93.0269 59.9671 97.7899 51.5195 97.7899C45.9478 97.7899 40.4658 95.5432 38.2191 94.1952L35.7029 102.553ZM104.733 46.206C91.0732 46.206 83.3446 58.428 83.3446 76.5812C83.4344 94.375 90.6238 106.597 104.104 106.597C118.033 106.597 125.403 94.8243 125.403 76.042C125.403 58.7874 118.842 46.206 104.733 46.206ZM104.463 54.6535C111.114 54.6535 114.349 62.6517 114.349 76.2217C114.349 90.2411 110.934 98.1494 104.463 98.1494C98.3524 98.1494 94.3983 90.7803 94.4881 76.5812C94.3983 61.9328 98.5322 54.6535 104.463 54.6535Z" fill="black"/>
</svg>
