<svg width="15" height="24" viewBox="0 0 15 24" fill="none" xmlns="http://www.w3.org/2000/svg">
<circle cx="7.5" cy="12.5625" r="4.125" stroke="url(#paint0_radial_300_1320)" stroke-width="0.75"/>
<path fill-rule="evenodd" clip-rule="evenodd" d="M4.75619 10.6443C5.4259 9.00295 5.96264 7.6875 7.5 7.6875C9.03736 7.6875 9.5741 9.00295 10.2438 10.6443L10.3125 10.8125C10.9785 11.6634 11.6444 11.933 12.161 12.1421C12.7353 12.3745 13.125 12.5323 13.125 13.3309C13.125 16.4375 10.6066 18.9375 7.5 18.9375C4.3934 18.9375 1.875 16.4375 1.875 13.3309C1.875 12.5323 2.26471 12.3745 2.83898 12.1421C3.35559 11.933 4.02154 11.6634 4.6875 10.8125L4.75619 10.6443Z" fill="#8E2424"/>
<path d="M8.43709 7.6875C8.43709 8.72303 8.53461 9.5625 7.4992 9.5625C6.46379 9.5625 6.56207 8.72303 6.56207 7.6875C6.56207 6.65197 6.46379 5.8125 7.4992 5.8125C8.53461 5.8125 8.43709 6.65197 8.43709 7.6875Z" fill="url(#paint1_linear_300_1320)"/>
<path d="M11.25 5.1875C11.25 6.91339 9.57107 7.6875 7.5 7.6875C5.42893 7.6875 3.75 6.91339 3.75 5.1875C3.75 3.46161 5.42893 0.1875 7.5 0.1875C9.57107 0.1875 11.25 3.46161 11.25 5.1875Z" fill="url(#paint2_radial_300_1320)"/>
<path d="M0 4.3125C0 3.89829 0.335786 3.5625 0.75 3.5625H14.25C14.6642 3.5625 15 3.89829 15 4.3125C15 4.72671 14.6642 5.0625 14.25 5.0625H0.75C0.335787 5.0625 0 4.72671 0 4.3125Z" fill="url(#paint3_linear_300_1320)"/>
<path d="M8.25017 20.0625C8.25017 21.7194 9.15692 23.0625 7.50006 23.0625C5.84321 23.0625 6.75 21.7194 6.75 20.0625C6.75 18.4056 5.84321 17.0625 7.50006 17.0625C9.15692 17.0625 8.25017 18.4056 8.25017 20.0625Z" fill="url(#paint4_linear_300_1320)"/>
<defs>
<radialGradient id="paint0_radial_300_1320" cx="0" cy="0" r="1" gradientUnits="userSpaceOnUse" gradientTransform="translate(7.5 12.5625) rotate(90) scale(4.5)">
<stop offset="0.836474"/>
<stop offset="0.927099" stop-color="#212121"/>
<stop offset="1"/>
</radialGradient>
<linearGradient id="paint1_linear_300_1320" x1="7.5" y1="5.8125" x2="7.49955" y2="9.5625" gradientUnits="userSpaceOnUse">
<stop offset="0.343041" stop-color="#AA2A2A"/>
<stop offset="0.620538" stop-color="#AA2F2F"/>
<stop offset="1" stop-color="#892626"/>
</linearGradient>
<radialGradient id="paint2_radial_300_1320" cx="0" cy="0" r="1" gradientUnits="userSpaceOnUse" gradientTransform="translate(7.5 2.8125) rotate(90) scale(4.875)">
<stop stop-color="#BF3D3D"/>
<stop offset="0.793374" stop-color="#AB2E2E"/>
</radialGradient>
<linearGradient id="paint3_linear_300_1320" x1="7.5" y1="3.5625" x2="7.5" y2="5.0625" gradientUnits="userSpaceOnUse">
<stop/>
<stop offset="0.53125" stop-color="#3A3A3A"/>
<stop offset="1"/>
</linearGradient>
<linearGradient id="paint4_linear_300_1320" x1="7.50011" y1="17.0625" x2="7.50011" y2="23.0625" gradientUnits="userSpaceOnUse">
<stop stop-color="#892222"/>
<stop offset="0.494792" stop-color="#AA2F2F"/>
<stop offset="1" stop-color="#6F1F1F"/>
</linearGradient>
</defs>
</svg>
