<svg width="74" height="21" viewBox="0 0 74 21" fill="none" xmlns="http://www.w3.org/2000/svg">
<rect x="14.6875" y="2.5625" width="17.0625" height="8.125" fill="#4F3D10"/>
<rect x="14.6875" y="2.5625" width="17.0625" height="8.125" fill="url(#paint0_linear_266_3871)" fill-opacity="0.3"/>
<rect x="17.0884" y="2.5625" width="4.41335" height="1.625" rx="0.8125" transform="rotate(77.8294 17.0884 2.5625)" fill="#2C2107"/>
<rect width="4.41335" height="1.625" rx="0.8125" transform="matrix(-0.210823 0.977524 0.977524 0.210823 29.4302 2.5625)" fill="#2C2107"/>
<rect x="29.4302" y="10.4692" width="4.41335" height="1.625" rx="0.8125" transform="rotate(-102.171 29.4302 10.4692)" fill="#2C2107"/>
<rect width="4.41335" height="1.625" rx="0.8125" transform="matrix(0.210823 -0.977524 -0.977524 -0.210823 17.0884 10.4692)" fill="#2C2107"/>
<rect x="17.9329" y="5.64404" width="4.67043" height="1.625" rx="0.8125" transform="rotate(88.602 17.9329 5.64404)" fill="#2C2107"/>
<rect x="17.9329" y="5.64404" width="4.67043" height="1.625" rx="0.8125" transform="rotate(88.602 17.9329 5.64404)" fill="url(#paint1_linear_266_3871)" fill-opacity="0.2"/>
<rect width="4.50193" height="1.625" rx="0.8125" transform="matrix(-0.0243966 0.999702 0.999702 0.0243966 28.6099 5.72412)" fill="#2C2107"/>
<rect width="4.50193" height="1.625" rx="0.8125" transform="matrix(-0.0243966 0.999702 0.999702 0.0243966 28.6099 5.72412)" fill="url(#paint2_linear_266_3871)" fill-opacity="0.2"/>
<rect x="59.375" y="18.8125" width="17.0625" height="8.125" transform="rotate(-180 59.375 18.8125)" fill="#4F3D10"/>
<rect width="17.0625" height="8.125" transform="matrix(1 0 0 -1 42.3125 18.8125)" fill="url(#paint3_linear_266_3871)" fill-opacity="0.3"/>
<rect x="56.9736" y="18.8125" width="4.41335" height="1.625" rx="0.8125" transform="rotate(-102.171 56.9736 18.8125)" fill="#2C2107"/>
<rect width="4.41335" height="1.625" rx="0.8125" transform="matrix(0.210823 -0.977524 -0.977524 -0.210823 44.6321 18.8125)" fill="#2C2107"/>
<rect x="44.6323" y="10.9053" width="4.41335" height="1.625" rx="0.8125" transform="rotate(77.8294 44.6323 10.9053)" fill="#2C2107"/>
<rect width="4.41335" height="1.625" rx="0.8125" transform="matrix(-0.210823 0.977524 0.977524 0.210823 56.9736 10.9053)" fill="#2C2107"/>
<rect width="4.50193" height="1.625" rx="0.8125" transform="matrix(0.0243967 -0.999702 -0.999702 -0.0243967 45.4526 15.6509)" fill="#2C2107"/>
<rect width="4.50193" height="1.625" rx="0.8125" transform="matrix(0.0243967 -0.999702 -0.999702 -0.0243967 45.4526 15.6509)" fill="url(#paint4_linear_266_3871)" fill-opacity="0.2"/>
<rect x="56.1296" y="15.731" width="4.67043" height="1.625" rx="0.8125" transform="rotate(-91.398 56.1296 15.731)" fill="#2C2107"/>
<rect x="56.1296" y="15.731" width="4.67043" height="1.625" rx="0.8125" transform="rotate(-91.398 56.1296 15.731)" fill="url(#paint5_linear_266_3871)" fill-opacity="0.2"/>
<rect x="4.9375" y="0.9375" width="19.5" height="4.875" rx="2.4375" transform="rotate(90 4.9375 0.9375)" fill="url(#paint6_linear_266_3871)"/>
<rect x="4.9375" y="0.9375" width="19.5" height="4.875" rx="2.4375" transform="rotate(90 4.9375 0.9375)" fill="#972929"/>
<rect x="4.9375" y="0.9375" width="19.5" height="4.875" rx="2.4375" transform="rotate(90 4.9375 0.9375)" fill="url(#paint7_linear_266_3871)" fill-opacity="0.4"/>
<rect x="74" y="0.9375" width="19.5" height="4.875" rx="2.4375" transform="rotate(90 74 0.9375)" fill="#972929"/>
<rect x="74" y="0.9375" width="19.5" height="4.875" rx="2.4375" transform="rotate(90 74 0.9375)" fill="url(#paint8_linear_266_3871)" fill-opacity="0.4"/>
<rect x="0.0625" y="8.25" width="73.9375" height="4.875" fill="#972929"/>
<rect x="0.0625" y="8.25" width="73.9375" height="4.875" fill="url(#paint9_linear_266_3871)" fill-opacity="0.3"/>
<rect x="16.3125" y="8.25" width="1.625" height="4.875" fill="#2C2107"/>
<rect x="16.3125" y="8.25" width="1.625" height="4.875" fill="url(#paint10_linear_266_3871)" fill-opacity="0.2"/>
<rect x="28.5" y="8.25" width="1.625" height="4.875" fill="#2C2107"/>
<rect x="28.5" y="8.25" width="1.625" height="4.875" fill="url(#paint11_linear_266_3871)" fill-opacity="0.2"/>
<rect x="43.9375" y="8.25" width="1.625" height="4.875" fill="#2C2107"/>
<rect x="43.9375" y="8.25" width="1.625" height="4.875" fill="url(#paint12_linear_266_3871)" fill-opacity="0.2"/>
<rect x="56.125" y="8.25" width="1.625" height="4.875" fill="#2C2107"/>
<rect x="56.125" y="8.25" width="1.625" height="4.875" fill="url(#paint13_linear_266_3871)" fill-opacity="0.2"/>
<defs>
<linearGradient id="paint0_linear_266_3871" x1="23.2188" y1="2.5625" x2="23.2188" y2="10.6875" gradientUnits="userSpaceOnUse">
<stop offset="0.229167" stop-opacity="0"/>
<stop offset="1"/>
</linearGradient>
<linearGradient id="paint1_linear_266_3871" x1="20.5183" y1="6.51532" x2="18.0816" y2="6.45585" gradientUnits="userSpaceOnUse">
<stop/>
<stop offset="1" stop-opacity="0"/>
</linearGradient>
<linearGradient id="paint2_linear_266_3871" x1="2.49219" y1="0.871274" x2="0.143232" y2="0.816018" gradientUnits="userSpaceOnUse">
<stop/>
<stop offset="1" stop-opacity="0"/>
</linearGradient>
<linearGradient id="paint3_linear_266_3871" x1="8.53125" y1="0" x2="8.53125" y2="8.125" gradientUnits="userSpaceOnUse">
<stop offset="0.229167" stop-opacity="0"/>
<stop offset="1"/>
</linearGradient>
<linearGradient id="paint4_linear_266_3871" x1="2.49219" y1="0.871274" x2="0.143232" y2="0.816018" gradientUnits="userSpaceOnUse">
<stop/>
<stop offset="1" stop-opacity="0"/>
</linearGradient>
<linearGradient id="paint5_linear_266_3871" x1="58.7151" y1="16.6022" x2="56.2783" y2="16.5428" gradientUnits="userSpaceOnUse">
<stop/>
<stop offset="1" stop-opacity="0"/>
</linearGradient>
<linearGradient id="paint6_linear_266_3871" x1="24.4375" y1="3.375" x2="4.9375" y2="3.375" gradientUnits="userSpaceOnUse">
<stop offset="0.373881"/>
<stop offset="0.6199"/>
<stop offset="1"/>
</linearGradient>
<linearGradient id="paint7_linear_266_3871" x1="24.4375" y1="3.375" x2="4.9375" y2="3.375" gradientUnits="userSpaceOnUse">
<stop/>
<stop offset="0.369792" stop-opacity="0"/>
<stop offset="0.645833" stop-opacity="0.49"/>
<stop offset="1"/>
</linearGradient>
<linearGradient id="paint8_linear_266_3871" x1="93.5" y1="3.375" x2="74" y2="3.375" gradientUnits="userSpaceOnUse">
<stop/>
<stop offset="0.369792" stop-opacity="0"/>
<stop offset="0.645833" stop-opacity="0.49"/>
<stop offset="1"/>
</linearGradient>
<linearGradient id="paint9_linear_266_3871" x1="37.0313" y1="8.25" x2="37.0313" y2="13.125" gradientUnits="userSpaceOnUse">
<stop/>
<stop offset="1" stop-opacity="0"/>
</linearGradient>
<linearGradient id="paint10_linear_266_3871" x1="17.125" y1="8.25" x2="17.125" y2="13.125" gradientUnits="userSpaceOnUse">
<stop/>
<stop offset="1" stop-opacity="0"/>
</linearGradient>
<linearGradient id="paint11_linear_266_3871" x1="29.3125" y1="8.25" x2="29.3125" y2="13.125" gradientUnits="userSpaceOnUse">
<stop/>
<stop offset="1" stop-opacity="0"/>
</linearGradient>
<linearGradient id="paint12_linear_266_3871" x1="44.75" y1="8.25" x2="44.75" y2="13.125" gradientUnits="userSpaceOnUse">
<stop/>
<stop offset="1" stop-opacity="0"/>
</linearGradient>
<linearGradient id="paint13_linear_266_3871" x1="56.9375" y1="8.25" x2="56.9375" y2="13.125" gradientUnits="userSpaceOnUse">
<stop/>
<stop offset="1" stop-opacity="0"/>
</linearGradient>
</defs>
</svg>
