<svg width="63" height="23" viewBox="0 0 63 23" fill="none" xmlns="http://www.w3.org/2000/svg">
<rect x="10.2319" y="0.328125" width="22.1692" height="4.2633" rx="2.13165" transform="rotate(90 10.2319 0.328125)" fill="#6C5313"/>
<rect x="32.8274" y="0.328125" width="22.1692" height="4.2633" rx="2.13165" transform="rotate(90 32.8274 0.328125)" fill="#6C5313"/>
<rect x="55.8494" y="0.328125" width="22.1692" height="4.2633" rx="2.13165" transform="rotate(90 55.8494 0.328125)" fill="#6C5313"/>
<rect y="0.328125" width="62.3704" height="4.45503" rx="2.22751" fill="#9B7923"/>
<rect y="6.29688" width="62.3704" height="4.45503" rx="2.22751" fill="#9B7923"/>
<rect y="12.2656" width="62.3704" height="4.45503" rx="2.22751" fill="#9B7923"/>
<rect y="18.2339" width="62.3704" height="4.45503" rx="2.22751" fill="#9B7923"/>
<path d="M5.96851 4.80518H10.2318V6.29733H5.96851V4.80518Z" fill="url(#paint0_linear_270_4607)" fill-opacity="0.2"/>
<path d="M5.96851 10.75H10.2318V12.2655H5.96851V10.75Z" fill="url(#paint1_linear_270_4607)" fill-opacity="0.2"/>
<path d="M5.96851 16.7188H10.2318V18.2342H5.96851V16.7188Z" fill="url(#paint2_linear_270_4607)" fill-opacity="0.2"/>
<path d="M28.564 16.7188H32.8273V18.2342H28.564V16.7188Z" fill="url(#paint3_linear_270_4607)" fill-opacity="0.2"/>
<path d="M51.5859 16.7188H55.8492V18.2342H51.5859V16.7188Z" fill="url(#paint4_linear_270_4607)" fill-opacity="0.2"/>
<path d="M51.5859 10.75H55.8492V12.2655H51.5859V10.75Z" fill="url(#paint5_linear_270_4607)" fill-opacity="0.2"/>
<path d="M51.5859 4.78125H55.8492V6.29672H51.5859V4.78125Z" fill="url(#paint6_linear_270_4607)" fill-opacity="0.2"/>
<path d="M28.564 10.7734H32.8273V12.2656H28.564V10.7734Z" fill="url(#paint7_linear_270_4607)" fill-opacity="0.2"/>
<path d="M28.564 4.80518H32.8273V6.29733H28.564V4.80518Z" fill="url(#paint8_linear_270_4607)" fill-opacity="0.2"/>
<circle cx="53.7368" cy="2.47919" r="0.445503" fill="#2B2B2B"/>
<circle cx="53.7368" cy="2.47919" r="0.445503" fill="url(#paint9_radial_270_4607)" fill-opacity="0.2"/>
<circle cx="30.715" cy="2.47919" r="0.445503" fill="#2B2B2B"/>
<circle cx="30.715" cy="2.47919" r="0.445503" fill="url(#paint10_radial_270_4607)" fill-opacity="0.2"/>
<circle cx="8.11957" cy="2.47919" r="0.445503" fill="#2B2B2B"/>
<circle cx="8.11957" cy="2.47919" r="0.445503" fill="url(#paint11_radial_270_4607)" fill-opacity="0.2"/>
<circle cx="53.7368" cy="8.44746" r="0.445503" fill="#2B2B2B"/>
<circle cx="53.7368" cy="8.44746" r="0.445503" fill="url(#paint12_radial_270_4607)" fill-opacity="0.2"/>
<circle cx="30.715" cy="8.44746" r="0.445503" fill="#2B2B2B"/>
<circle cx="30.715" cy="8.44746" r="0.445503" fill="url(#paint13_radial_270_4607)" fill-opacity="0.2"/>
<circle cx="8.11957" cy="8.44746" r="0.445503" fill="#2B2B2B"/>
<circle cx="8.11957" cy="8.44746" r="0.445503" fill="url(#paint14_radial_270_4607)" fill-opacity="0.2"/>
<circle cx="53.7368" cy="14.4167" r="0.445503" fill="#2B2B2B"/>
<circle cx="53.7368" cy="14.4167" r="0.445503" fill="url(#paint15_radial_270_4607)" fill-opacity="0.2"/>
<circle cx="30.715" cy="14.4167" r="0.445503" fill="#2B2B2B"/>
<circle cx="30.715" cy="14.4167" r="0.445503" fill="url(#paint16_radial_270_4607)" fill-opacity="0.2"/>
<circle cx="8.11957" cy="14.4167" r="0.445503" fill="#2B2B2B"/>
<circle cx="8.11957" cy="14.4167" r="0.445503" fill="url(#paint17_radial_270_4607)" fill-opacity="0.2"/>
<circle cx="53.7368" cy="20.385" r="0.445503" fill="#2B2B2B"/>
<circle cx="53.7368" cy="20.385" r="0.445503" fill="url(#paint18_radial_270_4607)" fill-opacity="0.2"/>
<circle cx="30.715" cy="20.385" r="0.445503" fill="#2B2B2B"/>
<circle cx="30.715" cy="20.385" r="0.445503" fill="url(#paint19_radial_270_4607)" fill-opacity="0.2"/>
<circle cx="8.11957" cy="20.385" r="0.445503" fill="#2B2B2B"/>
<circle cx="8.11957" cy="20.385" r="0.445503" fill="url(#paint20_radial_270_4607)" fill-opacity="0.2"/>
<defs>
<linearGradient id="paint0_linear_270_4607" x1="8.19602" y1="4.59201" x2="8.19602" y2="6.29733" gradientUnits="userSpaceOnUse">
<stop/>
<stop offset="0.498057" stop-opacity="0"/>
<stop offset="1"/>
</linearGradient>
<linearGradient id="paint1_linear_270_4607" x1="8.19602" y1="10.5335" x2="8.19602" y2="12.2655" gradientUnits="userSpaceOnUse">
<stop/>
<stop offset="0.498057" stop-opacity="0"/>
<stop offset="1"/>
</linearGradient>
<linearGradient id="paint2_linear_270_4607" x1="8.19602" y1="16.5023" x2="8.19602" y2="18.2342" gradientUnits="userSpaceOnUse">
<stop/>
<stop offset="0.498057" stop-opacity="0"/>
<stop offset="1"/>
</linearGradient>
<linearGradient id="paint3_linear_270_4607" x1="30.7915" y1="16.5023" x2="30.7915" y2="18.2342" gradientUnits="userSpaceOnUse">
<stop/>
<stop offset="0.498057" stop-opacity="0"/>
<stop offset="1"/>
</linearGradient>
<linearGradient id="paint4_linear_270_4607" x1="53.8135" y1="16.5023" x2="53.8135" y2="18.2342" gradientUnits="userSpaceOnUse">
<stop/>
<stop offset="0.498057" stop-opacity="0"/>
<stop offset="1"/>
</linearGradient>
<linearGradient id="paint5_linear_270_4607" x1="53.8135" y1="10.5335" x2="53.8135" y2="12.2655" gradientUnits="userSpaceOnUse">
<stop/>
<stop offset="0.498057" stop-opacity="0"/>
<stop offset="1"/>
</linearGradient>
<linearGradient id="paint6_linear_270_4607" x1="53.8135" y1="4.56475" x2="53.8135" y2="6.29672" gradientUnits="userSpaceOnUse">
<stop/>
<stop offset="0.498057" stop-opacity="0"/>
<stop offset="1"/>
</linearGradient>
<linearGradient id="paint7_linear_270_4607" x1="30.7915" y1="10.5603" x2="30.7915" y2="12.2656" gradientUnits="userSpaceOnUse">
<stop/>
<stop offset="0.498057" stop-opacity="0"/>
<stop offset="1"/>
</linearGradient>
<linearGradient id="paint8_linear_270_4607" x1="30.7915" y1="4.59201" x2="30.7915" y2="6.29733" gradientUnits="userSpaceOnUse">
<stop/>
<stop offset="0.498057" stop-opacity="0"/>
<stop offset="1"/>
</linearGradient>
<radialGradient id="paint9_radial_270_4607" cx="0" cy="0" r="1" gradientUnits="userSpaceOnUse" gradientTransform="translate(53.7368 2.47919) rotate(90) scale(0.297002)">
<stop stop-opacity="0"/>
<stop offset="1"/>
</radialGradient>
<radialGradient id="paint10_radial_270_4607" cx="0" cy="0" r="1" gradientUnits="userSpaceOnUse" gradientTransform="translate(30.715 2.47919) rotate(90) scale(0.297002)">
<stop stop-opacity="0"/>
<stop offset="1"/>
</radialGradient>
<radialGradient id="paint11_radial_270_4607" cx="0" cy="0" r="1" gradientUnits="userSpaceOnUse" gradientTransform="translate(8.11957 2.47919) rotate(90) scale(0.297002)">
<stop stop-opacity="0"/>
<stop offset="1"/>
</radialGradient>
<radialGradient id="paint12_radial_270_4607" cx="0" cy="0" r="1" gradientUnits="userSpaceOnUse" gradientTransform="translate(53.7368 8.44746) rotate(90) scale(0.297002)">
<stop stop-opacity="0"/>
<stop offset="1"/>
</radialGradient>
<radialGradient id="paint13_radial_270_4607" cx="0" cy="0" r="1" gradientUnits="userSpaceOnUse" gradientTransform="translate(30.715 8.44746) rotate(90) scale(0.297002)">
<stop stop-opacity="0"/>
<stop offset="1"/>
</radialGradient>
<radialGradient id="paint14_radial_270_4607" cx="0" cy="0" r="1" gradientUnits="userSpaceOnUse" gradientTransform="translate(8.11957 8.44746) rotate(90) scale(0.297002)">
<stop stop-opacity="0"/>
<stop offset="1"/>
</radialGradient>
<radialGradient id="paint15_radial_270_4607" cx="0" cy="0" r="1" gradientUnits="userSpaceOnUse" gradientTransform="translate(53.7368 14.4167) rotate(90) scale(0.297002)">
<stop stop-opacity="0"/>
<stop offset="1"/>
</radialGradient>
<radialGradient id="paint16_radial_270_4607" cx="0" cy="0" r="1" gradientUnits="userSpaceOnUse" gradientTransform="translate(30.715 14.4167) rotate(90) scale(0.297002)">
<stop stop-opacity="0"/>
<stop offset="1"/>
</radialGradient>
<radialGradient id="paint17_radial_270_4607" cx="0" cy="0" r="1" gradientUnits="userSpaceOnUse" gradientTransform="translate(8.11957 14.4167) rotate(90) scale(0.297002)">
<stop stop-opacity="0"/>
<stop offset="1"/>
</radialGradient>
<radialGradient id="paint18_radial_270_4607" cx="0" cy="0" r="1" gradientUnits="userSpaceOnUse" gradientTransform="translate(53.7368 20.385) rotate(90) scale(0.297002)">
<stop stop-opacity="0"/>
<stop offset="1"/>
</radialGradient>
<radialGradient id="paint19_radial_270_4607" cx="0" cy="0" r="1" gradientUnits="userSpaceOnUse" gradientTransform="translate(30.715 20.385) rotate(90) scale(0.297002)">
<stop stop-opacity="0"/>
<stop offset="1"/>
</radialGradient>
<radialGradient id="paint20_radial_270_4607" cx="0" cy="0" r="1" gradientUnits="userSpaceOnUse" gradientTransform="translate(8.11957 20.385) rotate(90) scale(0.297002)">
<stop stop-opacity="0"/>
<stop offset="1"/>
</radialGradient>
</defs>
</svg>
