<svg width="87" height="97" viewBox="0 0 87 97" fill="none" xmlns="http://www.w3.org/2000/svg">
<g filter="url(#filter0_f_270_4551)">
<path fill-rule="evenodd" clip-rule="evenodd" d="M76.2983 42.5786C80.6175 46.6253 83.3163 52.3807 83.3163 58.7665C83.3163 69.2443 76.0504 78.0251 66.2824 80.3452C62.9191 88.3136 55.0328 93.9062 45.8403 93.9062C39.9821 93.9062 34.6544 91.635 30.6898 87.925C29.0675 88.3028 27.3769 88.5025 25.6397 88.5025C13.3908 88.5025 3.46118 78.5729 3.46118 66.324C3.46118 61.4632 5.02488 56.9677 7.67667 53.313C5.02488 49.6582 3.46118 45.1627 3.46118 40.3019C3.46118 30.5413 9.76642 22.2533 18.526 19.2889C21.2316 10.0941 29.7346 3.38184 39.8054 3.38184C46.594 3.38184 52.6702 6.43187 56.7385 11.2363C68.6919 11.5744 78.2782 21.3706 78.2782 33.4058C78.2782 36.6772 77.5699 39.7831 76.2983 42.5786Z" fill="#2E2E2E" fill-opacity="0.44"/>
</g>
<path fill-rule="evenodd" clip-rule="evenodd" d="M75.006 42.8167C79.1555 46.7045 81.7482 52.2338 81.7482 58.3687C81.7482 68.4351 74.7677 76.871 65.3833 79.1C62.1522 86.7556 54.5756 92.1287 45.7439 92.1287C40.1158 92.1287 34.9972 89.9465 31.1883 86.3822C29.6298 86.7451 28.0057 86.937 26.3368 86.937C14.569 86.937 5.0293 77.3973 5.0293 65.6295C5.0293 60.9596 6.53157 56.6407 9.07921 53.1295C6.53157 49.6183 5.0293 45.2993 5.0293 40.6295C5.0293 31.2522 11.0869 23.2897 19.5024 20.4417C22.1017 11.6081 30.2708 5.15942 39.946 5.15942C46.468 5.15942 52.3056 8.08967 56.2141 12.7055C67.6981 13.0302 76.908 22.4417 76.908 34.0043C76.908 37.1471 76.2275 40.131 75.006 42.8167Z" fill="url(#paint0_radial_270_4551)"/>
<defs>
<filter id="filter0_f_270_4551" x="0.461182" y="0.381836" width="85.855" height="96.5244" filterUnits="userSpaceOnUse" color-interpolation-filters="sRGB">
<feFlood flood-opacity="0" result="BackgroundImageFix"/>
<feBlend mode="normal" in="SourceGraphic" in2="BackgroundImageFix" result="shape"/>
<feGaussianBlur stdDeviation="1.5" result="effect1_foregroundBlur_270_4551"/>
</filter>
<radialGradient id="paint0_radial_270_4551" cx="0" cy="0" r="1" gradientUnits="userSpaceOnUse" gradientTransform="translate(46.4685 48.644) rotate(90) scale(43.4846 30.4392)">
<stop stop-color="#1F522A"/>
<stop offset="1" stop-color="#2C6739"/>
</radialGradient>
</defs>
</svg>
