<svg width="220" height="419" viewBox="0 0 220 419" fill="none" xmlns="http://www.w3.org/2000/svg">
<path d="M19.9973 163.996L21.727 388.854C21.8469 404.441 34.1788 417.223 49.7574 417.744C92.5718 419.176 125.209 419.134 168.7 417.76C185.523 417.228 198.82 403.374 198.82 386.543V163.996C216.313 167.869 235.75 151.41 198.82 143.665L199.698 24.6347C199.75 17.6724 194.12 12.0009 187.157 12.0009V7.05527C187.157 5.3614 186.139 3.81836 184.545 3.24435C176.803 0.455773 171.483 0.59231 163.623 3.27381C161.983 3.83341 160.917 5.40073 160.917 7.13382V11.0327C123.161 0.91352 100.83 0.589697 58.8717 10.0646V6.35564C58.8717 4.52988 57.6882 2.9009 55.9287 2.41336C48.5788 0.376723 43.343 0.196977 35.5299 2.40133C33.79 2.8922 32.6315 4.51047 32.6315 6.31823V12.0008L31.3493 12.2956C24.7056 13.8229 19.9973 19.7363 19.9973 26.5533L19.9973 143.665C-12.0742 149.474 0.560038 166.9 19.9973 163.996Z" fill="#7F93A9"/>
<path d="M43.6283 17.5648H65.7651C100.797 8.39308 120.106 9.97658 154.313 17.5648H173.562L182.224 119.943C126.636 109.09 94.7778 107.852 35.9285 119.943L43.6283 17.5648Z" fill="#90A6BD"/>
<path d="M25.4788 310.123V149.202C32.1984 153.015 34.7148 156.771 35.9285 167.732V297.444C35.7911 308.291 32.9491 310.239 25.4788 310.123Z" fill="#565656"/>
<path d="M192.674 310.123V149.202C185.954 153.015 183.438 156.771 182.224 167.732V297.444C182.362 308.291 185.204 310.239 192.674 310.123Z" fill="#565656"/>
<path d="M172.194 132.698C126.556 123.757 96.8816 124.337 48.8562 132.737C44.5916 133.483 42.3812 138.249 44.5465 141.998L51.4898 154.02C52.7329 156.173 55.1327 157.385 57.605 157.128C99.8097 152.751 124.213 154.092 164.394 157.23C166.949 157.429 169.371 156.056 170.508 153.76L176.546 141.562C178.364 137.891 176.215 133.485 172.194 132.698Z" fill="#565656"/>
<path d="M46.3779 176.869C46.3779 170.438 51.2566 165.037 57.6612 164.449C97.5916 160.785 124.266 160.883 164.622 164.482C171.047 165.055 175.954 170.464 175.954 176.915V305.948C175.954 312.873 170.34 318.487 163.415 318.487H58.9176C51.9921 318.487 46.3779 312.873 46.3779 305.948V176.869Z" fill="#90A6BD"/>
<path d="M35.9285 325.073C35.9285 323.802 37.0693 322.828 38.3276 323.003C91.3073 330.37 122.951 331.021 179.818 323.009C181.078 322.832 182.224 323.806 182.224 325.078V368.299C182.224 371.615 179.636 374.359 176.325 374.552C123.977 377.611 92.5099 378.011 41.7637 374.604C38.48 374.384 35.9285 371.651 35.9285 368.36V325.073Z" fill="#565656"/>
<path d="M44.6994 388.669C46.0134 384.231 50.0905 381.186 54.7191 381.186H167.414C172.513 381.186 176.867 384.865 177.718 389.892L178.896 396.859C179.544 400.686 176.595 404.175 172.715 404.175H48.5035C44.3129 404.175 41.3019 400.143 42.4916 396.125L44.6994 388.669Z" fill="#90A6BD"/>
</svg>
