<svg width="20" height="20" viewBox="0 0 20 20" fill="none" xmlns="http://www.w3.org/2000/svg">
<path d="M8.75 19.3996C7.56667 19.2496 6.475 18.8996 5.475 18.3496C4.475 17.7996 3.60433 17.1079 2.863 16.2746C2.121 15.4413 1.54167 14.4869 1.125 13.4116C0.708333 12.3369 0.5 11.1996 0.5 9.99961C0.5 8.51628 0.808333 7.14528 1.425 5.88661C2.04167 4.62861 2.925 3.54128 4.075 2.62461H1.375V1.12461H6.75V6.49961H5.25V3.59961C4.2 4.36628 3.396 5.30361 2.838 6.41161C2.27933 7.52028 2 8.71628 2 9.99961C2 11.9829 2.63333 13.7123 3.9 15.1876C5.16667 16.6623 6.78333 17.5579 8.75 17.8746V19.3996ZM13.25 18.8996V13.5246H14.75V16.4246C15.7833 15.6246 16.5833 14.6746 17.15 13.5746C17.7167 12.4746 18 11.2829 18 9.99961C18 8.01628 17.3667 6.28694 16.1 4.81161C14.8333 3.33694 13.2167 2.44128 11.25 2.12461V0.599609C13.6167 0.916276 15.5833 1.95794 17.15 3.72461C18.7167 5.49128 19.5 7.58294 19.5 9.99961C19.5 11.4829 19.1917 12.8539 18.575 14.1126C17.9583 15.3706 17.075 16.4663 15.925 17.3996H18.625V18.8996H13.25Z" fill="black"/>
</svg>
