<svg width="16" height="15" viewBox="0 0 16 15" fill="none" xmlns="http://www.w3.org/2000/svg">
<path d="M5.8 15C4.21667 15 2.85417 14.4667 1.7125 13.4C0.570833 12.3333 0 11.0167 0 9.45C0 7.88333 0.570833 6.56667 1.7125 5.5C2.85417 4.43333 4.21667 3.9 5.8 3.9H13.15L10.3 1.05L11.35 0L16 4.65L11.35 9.3L10.3 8.25L13.15 5.4H5.775C4.60833 5.4 3.60417 5.7875 2.7625 6.5625C1.92083 7.3375 1.5 8.3 1.5 9.45C1.5 10.6 1.92083 11.5625 2.7625 12.3375C3.60417 13.1125 4.60833 13.5 5.775 13.5H13V15H5.8Z" fill="#222222"/>
</svg>
