<svg width="20" height="21" viewBox="0 0 20 21" fill="none" xmlns="http://www.w3.org/2000/svg">
<path d="M10 20.3496C8.63333 20.3496 7.34167 20.0871 6.125 19.5621C4.90833 19.0371 3.84583 18.3204 2.9375 17.4121C2.02917 16.5038 1.3125 15.4413 0.7875 14.2246C0.2625 13.0079 0 11.7163 0 10.3496H1.5C1.5 12.4663 2.2 14.3288 3.6 15.9371C5 17.5454 6.76667 18.4913 8.9 18.7746L7.375 17.2496L8.375 16.2496L12.225 20.0996C11.8583 20.2163 11.4917 20.2871 11.125 20.3121C10.7583 20.3371 10.3833 20.3496 10 20.3496ZM10.725 13.5496V7.12461H13.875C14.1917 7.12461 14.4542 7.22878 14.6625 7.43711C14.8708 7.64544 14.975 7.90794 14.975 8.22461V12.4496C14.975 12.7663 14.8708 13.0288 14.6625 13.2371C14.4542 13.4454 14.1917 13.5496 13.875 13.5496H10.725ZM5.05 13.5496V12.3246H8.05V10.8246H6.125V9.84961H8.05V8.37461H5.05V7.12461H8.2C8.51667 7.12461 8.77917 7.22878 8.9875 7.43711C9.19583 7.64544 9.3 7.90794 9.3 8.22461V12.4496C9.3 12.7663 9.19583 13.0288 8.9875 13.2371C8.77917 13.4454 8.51667 13.5496 8.2 13.5496H5.05ZM11.95 12.3246H13.725V8.37461H11.95V12.3246ZM18.5 10.3496C18.5 8.21628 17.8042 6.34961 16.4125 4.74961C15.0208 3.14961 13.2583 2.20794 11.125 1.92461L12.625 3.42461L11.625 4.42461L7.775 0.574609C8.14167 0.457943 8.50833 0.391276 8.875 0.374609C9.24167 0.357943 9.61667 0.349609 10 0.349609C11.3833 0.349609 12.6792 0.612109 13.8875 1.13711C15.0958 1.66211 16.1542 2.37878 17.0625 3.28711C17.9708 4.19544 18.6875 5.25378 19.2125 6.46211C19.7375 7.67044 20 8.96628 20 10.3496H18.5Z" fill="#222222"/>
</svg>
