<svg width="18" height="18" viewBox="0 0 18 18" fill="none" xmlns="http://www.w3.org/2000/svg">
<path d="M8.925 14.85C9.19167 14.85 9.41667 14.7583 9.6 14.575C9.78333 14.3917 9.875 14.1667 9.875 13.9C9.875 13.6333 9.78333 13.4083 9.6 13.225C9.41667 13.0417 9.19167 12.95 8.925 12.95C8.65833 12.95 8.43333 13.0417 8.25 13.225C8.06667 13.4083 7.975 13.6333 7.975 13.9C7.975 14.1667 8.06667 14.3917 8.25 14.575C8.43333 14.7583 8.65833 14.85 8.925 14.85ZM8.1 11.15H9.525C9.525 10.6333 9.60833 10.2125 9.775 9.8875C9.94167 9.5625 10.2333 9.19167 10.65 8.775C11.2 8.225 11.5833 7.7375 11.8 7.3125C12.0167 6.8875 12.125 6.44167 12.125 5.975C12.125 5.09167 11.8417 4.39167 11.275 3.875C10.7083 3.35833 9.94167 3.1 8.975 3.1C8.125 3.1 7.39583 3.30417 6.7875 3.7125C6.17917 4.12083 5.73333 4.68333 5.45 5.4L6.775 5.95C7.00833 5.48333 7.30833 5.12917 7.675 4.8875C8.04167 4.64583 8.475 4.525 8.975 4.525C9.50833 4.525 9.92917 4.65833 10.2375 4.925C10.5458 5.19167 10.7 5.55833 10.7 6.025C10.7 6.35833 10.6083 6.67917 10.425 6.9875C10.2417 7.29583 9.93333 7.65833 9.5 8.075C8.88333 8.65833 8.49583 9.15833 8.3375 9.575C8.17917 9.99167 8.1 10.5167 8.1 11.15ZM1.5 18C1.1 18 0.75 17.85 0.45 17.55C0.15 17.25 0 16.9 0 16.5V1.5C0 1.1 0.15 0.75 0.45 0.45C0.75 0.15 1.1 0 1.5 0H16.5C16.9 0 17.25 0.15 17.55 0.45C17.85 0.75 18 1.1 18 1.5V16.5C18 16.9 17.85 17.25 17.55 17.55C17.25 17.85 16.9 18 16.5 18H1.5ZM1.5 16.5H16.5V1.5H1.5V16.5Z" fill="#222222"/>
</svg>
