<svg width="22" height="23" viewBox="0 0 22 23" fill="none" xmlns="http://www.w3.org/2000/svg">
<path d="M10.2 19.1746L4.7 15.9496C4.46667 15.8163 4.2875 15.6329 4.1625 15.3996C4.0375 15.1663 3.975 14.9163 3.975 14.6496V8.22461C3.975 7.95794 4.0375 7.70794 4.1625 7.47461C4.2875 7.24128 4.46667 7.05794 4.7 6.92461L10.225 3.64961C10.4583 3.51628 10.7167 3.44961 11 3.44961C11.2833 3.44961 11.5417 3.51628 11.775 3.64961L17.3 6.92461C17.5333 7.05794 17.7125 7.24128 17.8375 7.47461C17.9625 7.70794 18.025 7.95794 18.025 8.22461V14.6496C18.025 14.9163 17.9583 15.1663 17.825 15.3996C17.6917 15.6329 17.5083 15.8163 17.275 15.9496L11.7 19.1746C11.4667 19.3079 11.2167 19.3746 10.95 19.3746C10.6833 19.3746 10.4333 19.3079 10.2 19.1746ZM10.25 17.4496V11.8496L5.5 9.12461V14.5996L10.25 17.4496ZM11.75 17.4496L16.525 14.5996V9.12461L11.75 11.8496V17.4496ZM0 5.07461V3.14961C0 2.36628 0.270833 1.70378 0.8125 1.16211C1.35417 0.620443 2.01667 0.349609 2.8 0.349609H4.725V1.84961H2.8C2.43333 1.84961 2.125 1.97461 1.875 2.22461C1.625 2.47461 1.5 2.78294 1.5 3.14961V5.07461H0ZM2.8 22.3496C2.01667 22.3496 1.35417 22.0788 0.8125 21.5371C0.270833 20.9954 0 20.3329 0 19.5496V17.6246H1.5V19.5496C1.5 19.9163 1.625 20.2246 1.875 20.4746C2.125 20.7246 2.43333 20.8496 2.8 20.8496H4.725V22.3496H2.8ZM17.275 22.2496V20.7496H19.2C19.5667 20.7496 19.875 20.6246 20.125 20.3746C20.375 20.1246 20.5 19.8163 20.5 19.4496V17.5246H22V19.4496C22 20.2329 21.7292 20.8954 21.1875 21.4371C20.6458 21.9788 19.9833 22.2496 19.2 22.2496H17.275ZM20.5 5.07461V3.14961C20.5 2.78294 20.375 2.47461 20.125 2.22461C19.875 1.97461 19.5667 1.84961 19.2 1.84961H17.275V0.349609H19.2C19.9833 0.349609 20.6458 0.620443 21.1875 1.16211C21.7292 1.70378 22 2.36628 22 3.14961V5.07461H20.5ZM11 10.4996L15.75 7.74961L11 5.02461L6.25 7.74961L11 10.4996Z" fill="#222222"/>
</svg>
