<svg width="18" height="10" viewBox="0 0 18 10" fill="none" xmlns="http://www.w3.org/2000/svg">
<path d="M1.075 9.82481C0.841666 9.82481 0.645667 9.74547 0.487 9.5868C0.329 9.4288 0.25 9.23314 0.25 8.9998C0.25 8.76647 0.329 8.57047 0.487 8.4118C0.645667 8.2538 0.841666 8.1748 1.075 8.1748C1.30833 8.1748 1.504 8.2538 1.662 8.4118C1.82067 8.57047 1.9 8.76647 1.9 8.9998C1.9 9.23314 1.82067 9.4288 1.662 9.5868C1.504 9.74547 1.30833 9.82481 1.075 9.82481ZM1.075 5.8248C0.841666 5.8248 0.645667 5.74547 0.487 5.5868C0.329 5.4288 0.25 5.23314 0.25 4.9998C0.25 4.76647 0.329 4.57047 0.487 4.4118C0.645667 4.2538 0.841666 4.1748 1.075 4.1748C1.30833 4.1748 1.504 4.2538 1.662 4.4118C1.82067 4.57047 1.9 4.76647 1.9 4.9998C1.9 5.23314 1.82067 5.4288 1.662 5.5868C1.504 5.74547 1.30833 5.8248 1.075 5.8248ZM1.075 1.8248C0.841666 1.8248 0.645667 1.74547 0.487 1.5868C0.329 1.4288 0.25 1.23314 0.25 0.999804C0.25 0.766471 0.329 0.570471 0.487 0.411805C0.645667 0.253805 0.841666 0.174805 1.075 0.174805C1.30833 0.174805 1.504 0.253805 1.662 0.411805C1.82067 0.570471 1.9 0.766471 1.9 0.999804C1.9 1.23314 1.82067 1.4288 1.662 1.5868C1.504 1.74547 1.30833 1.8248 1.075 1.8248ZM4.125 9.7498V8.2498H17.75V9.7498H4.125ZM4.125 5.7498V4.2498H17.75V5.7498H4.125ZM4.125 1.7498V0.249804H17.75V1.7498H4.125Z" fill="black"/>
</svg>
