<svg width="21" height="20" viewBox="0 0 21 20" fill="none" xmlns="http://www.w3.org/2000/svg">
<path d="M5.275 0.900391H15.8V12.9004L9.15 19.5004L8.3 18.6504C8.2 18.5504 8.11667 18.4131 8.05 18.2384C7.98333 18.0631 7.95 17.9004 7.95 17.7504V17.5004L9 12.9004H2.3C1.83333 12.9004 1.41667 12.7171 1.05 12.3504C0.683333 11.9837 0.5 11.5671 0.5 11.1004V9.47539C0.5 9.37539 0.512667 9.26706 0.538 9.15039C0.562667 9.03372 0.591667 8.91706 0.625 8.80039L3.5 2.05039C3.63333 1.73372 3.871 1.46272 4.213 1.23739C4.55433 1.01272 4.90833 0.900391 5.275 0.900391ZM14.3 2.40039H5.275C5.20833 2.40039 5.13733 2.42106 5.062 2.46239C4.98733 2.50439 4.925 2.56706 4.875 2.65039L2 9.40039V11.1004C2 11.1837 2.02933 11.2544 2.088 11.3124C2.146 11.3711 2.21667 11.4004 2.3 11.4004H10.9L9.65 16.8754L14.3 12.2754V2.40039ZM15.8 12.9004V11.4004H19V2.40039H15.8V0.900391H20.5V12.9004H15.8Z" fill="black"/>
</svg>
