<svg width="21" height="19" viewBox="0 0 21 19" fill="none" xmlns="http://www.w3.org/2000/svg">
<path d="M10 8.45L1.5 2.875V14.5H11.25V16H1.5C1.1 16 0.75 15.85 0.45 15.55C0.15 15.25 0 14.9 0 14.5V1.5C0 1.1 0.15 0.75 0.45 0.45C0.75 0.15 1.1 0 1.5 0H18.5C18.9 0 19.25 0.15 19.55 0.45C19.85 0.75 20 1.1 20 1.5V9.25H18.5V2.875L10 8.45ZM10 6.95L18.5 1.5H1.5L10 6.95ZM17.35 18.9L16.3 17.85L18.125 16H12.75V14.5H18.125L16.275 12.65L17.35 11.6L21 15.25L17.35 18.9ZM1.5 2.875V15.35V9.25V9.35V1.5V2.875Z" fill="white"/>
</svg>
