<svg width="24" height="24" viewBox="0 0 24 24" fill="none" xmlns="http://www.w3.org/2000/svg">
<path d="M7.5 11.7002C6.53333 11.7002 5.70833 11.3542 5.025 10.6622C4.34167 9.97086 4 9.1502 4 8.2002C4 7.23353 4.34167 6.40853 5.025 5.7252C5.70833 5.04186 6.53333 4.7002 7.5 4.7002C8.46667 4.7002 9.29167 5.04186 9.975 5.7252C10.6583 6.40853 11 7.23353 11 8.2002C11 9.1502 10.6583 9.97086 9.975 10.6622C9.29167 11.3542 8.46667 11.7002 7.5 11.7002ZM0 19.3002V17.0752C0 16.5919 0.133333 16.1419 0.4 15.7252C0.666667 15.3085 1.025 14.9835 1.475 14.7502C2.45833 14.2669 3.45433 13.9042 4.463 13.6622C5.471 13.4209 6.48333 13.3002 7.5 13.3002C8.51667 13.3002 9.52933 13.4209 10.538 13.6622C11.546 13.9042 12.5417 14.2669 13.525 14.7502C13.975 14.9835 14.3333 15.3085 14.6 15.7252C14.8667 16.1419 15 16.5919 15 17.0752V19.3002H0Z" fill="#222222"/>
<path d="M15.7337 9.68421L17.5 8.69474L19.2663 9.69474L18.7937 7.82105L20.3463 6.55789L18.2987 6.38947L17.5 4.62105L16.7013 6.37895L14.6538 6.54737L16.2062 7.81053L15.7337 9.68421ZM14.7212 11L15.4525 8.04211L13 6.05263L16.24 5.78947L17.5 3L18.76 5.78947L22 6.05263L19.5475 8.04211L20.2787 11L17.5 9.43158L14.7212 11Z" fill="#222222"/>
</svg>
