<svg width="14" height="14" viewBox="0 0 14 14" fill="none" xmlns="http://www.w3.org/2000/svg">
<path d="M6.55016 10.333H7.55016V6.33301H6.55016V10.333ZM7.00016 5.09967C7.15572 5.09967 7.28627 5.04967 7.39183 4.94967C7.49739 4.84967 7.55016 4.7219 7.55016 4.56634C7.55016 4.41079 7.49739 4.27745 7.39183 4.16634C7.28627 4.05523 7.15572 3.99967 7.00016 3.99967C6.84461 3.99967 6.71405 4.05523 6.6085 4.16634C6.50294 4.27745 6.45016 4.41079 6.45016 4.56634C6.45016 4.7219 6.50294 4.84967 6.6085 4.94967C6.71405 5.04967 6.84461 5.09967 7.00016 5.09967ZM7.00016 13.6663C6.08905 13.6663 5.22794 13.4913 4.41683 13.1413C3.60572 12.7913 2.89739 12.3136 2.29183 11.708C1.68627 11.1025 1.2085 10.3941 0.858496 9.58301C0.508496 8.7719 0.333496 7.90523 0.333496 6.98301C0.333496 6.0719 0.508496 5.21079 0.858496 4.39967C1.2085 3.58856 1.68627 2.88301 2.29183 2.28301C2.89739 1.68301 3.60572 1.20801 4.41683 0.858008C5.22794 0.508008 6.09461 0.333008 7.01683 0.333008C7.92794 0.333008 8.78905 0.508008 9.60016 0.858008C10.4113 1.20801 11.1168 1.68301 11.7168 2.28301C12.3168 2.88301 12.7918 3.58856 13.1418 4.39967C13.4918 5.21079 13.6668 6.07745 13.6668 6.99967C13.6668 7.91079 13.4918 8.7719 13.1418 9.58301C12.7918 10.3941 12.3168 11.1025 11.7168 11.708C11.1168 12.3136 10.4113 12.7913 9.60016 13.1413C8.78905 13.4913 7.92239 13.6663 7.00016 13.6663ZM7.01683 12.6663C8.5835 12.6663 9.91683 12.1136 11.0168 11.008C12.1168 9.90245 12.6668 8.56079 12.6668 6.98301C12.6668 5.41634 12.1168 4.08301 11.0168 2.98301C9.91683 1.88301 8.57794 1.33301 7.00016 1.33301C5.4335 1.33301 4.09739 1.88301 2.99183 2.98301C1.88627 4.08301 1.3335 5.4219 1.3335 6.99967C1.3335 8.56634 1.88627 9.90245 2.99183 11.008C4.09739 12.1136 5.43905 12.6663 7.01683 12.6663Z" fill="#222222"/>
</svg>
