<svg width="23" height="24" viewBox="0 0 23 24" fill="none" xmlns="http://www.w3.org/2000/svg">
<path d="M13.7319 19.4052V20.182C13.7319 20.5327 13.5885 20.8516 13.3578 21.0823C13.1271 21.313 12.8081 21.4564 12.4574 21.4564H9.73843C9.38774 21.4564 9.06876 21.313 8.8381 21.0823L8.80743 21.0488C8.59491 20.8208 8.46397 20.515 8.46397 20.182V19.4052C8.46397 18.7617 8.33321 18.1654 8.07927 17.6318C7.8241 17.0959 7.44361 16.6176 6.94632 16.2138C6.18787 15.5976 5.5686 14.8174 5.14547 13.9284C4.73663 13.07 4.50752 12.1098 4.50752 11.0973C4.50752 9.28044 5.24535 7.63289 6.43807 6.43931L6.44107 6.43667C7.63428 5.24431 9.28148 4.50701 11.0977 4.50701C12.9146 4.50701 14.5621 5.24485 15.7557 6.43757L15.7584 6.44056C16.9507 7.63378 17.688 9.28098 17.688 11.0972C17.688 12.1096 17.4589 13.0699 17.0501 13.9283C16.6269 14.8172 16.0078 15.5975 15.2492 16.2137C14.7517 16.6175 14.3712 17.0958 14.1163 17.6317L14.1038 17.6562C13.8581 18.1829 13.7317 18.7713 13.7317 19.4051L13.7319 19.4052ZM9.80543 24C9.52646 24 9.30002 23.7736 9.30002 23.4946C9.30002 23.2156 9.52647 22.9892 9.80543 22.9892H12.2851C12.5641 22.9892 12.7905 23.2156 12.7905 23.4946C12.7905 23.7736 12.5641 24 12.2851 24H9.80543ZM9.53034 22.728C9.25137 22.728 9.02493 22.5016 9.02493 22.2226C9.02493 21.9436 9.25138 21.7172 9.53034 21.7172H12.5602C12.8391 21.7172 13.0656 21.9436 13.0656 22.2226C13.0656 22.5016 12.8391 22.728 12.5602 22.728H9.53034ZM10.5926 0.50541C10.5926 0.226444 10.8191 0 11.098 0C11.377 0 11.6035 0.226449 11.6035 0.50541V3.51021C11.6035 3.78918 11.377 4.01562 11.098 4.01562C10.8191 4.01562 10.5926 3.78918 10.5926 3.51021V0.50541ZM18.2308 3.25068C18.428 3.05348 18.7479 3.05348 18.9453 3.25068C19.1425 3.44787 19.1425 3.76772 18.9453 3.9651L16.8203 6.09005C16.6231 6.28724 16.3033 6.28724 16.1059 6.09005C15.9087 5.89285 15.9087 5.573 16.1059 5.37563L18.2308 3.25068ZM5.37567 16.1054C5.57287 15.9082 5.89272 15.9082 6.09009 16.1054C6.28729 16.3026 6.28729 16.6225 6.09009 16.8198L3.96514 18.9448C3.76795 19.142 3.44809 19.142 3.25072 18.9448C3.05352 18.7476 3.05352 18.4277 3.25072 18.2304L5.37567 16.1054ZM21.6902 10.592C21.9691 10.592 22.1956 10.8185 22.1956 11.0975C22.1956 11.3764 21.9691 11.6029 21.6902 11.6029H18.6854C18.4064 11.6029 18.18 11.3764 18.18 11.0975C18.18 10.8185 18.4064 10.592 18.6854 10.592H21.6902ZM3.51022 10.592C3.78918 10.592 4.01562 10.8185 4.01562 11.0975C4.01562 11.3764 3.78918 11.6029 3.51022 11.6029H0.50541C0.226444 11.6029 0 11.3764 0 11.0975C0 10.8185 0.226449 10.592 0.50541 10.592H3.51022ZM3.25063 3.96528C3.05344 3.76808 3.05344 3.44823 3.25063 3.25086C3.44783 3.05366 3.76768 3.05366 3.96506 3.25086L6.09001 5.37581C6.2872 5.573 6.2872 5.89286 6.09001 6.09023C5.89281 6.28742 5.57296 6.28742 5.37559 6.09023L3.25063 3.96528ZM16.1058 16.82C15.9086 16.6228 15.9086 16.303 16.1058 16.1056C16.303 15.9084 16.6229 15.9084 16.8202 16.1056L18.9452 18.2305C19.1424 18.4277 19.1424 18.7476 18.9452 18.945C18.748 19.1422 18.4281 19.1422 18.2308 18.945L16.1058 16.82ZM9.80206 6.58865C10.069 6.5104 10.3496 6.66319 10.4278 6.93035C10.5061 7.19733 10.3533 7.47789 10.0861 7.55612L10.0038 7.58062C9.73685 7.65886 9.45629 7.50607 9.37806 7.23891C9.29982 6.97193 9.4526 6.69137 9.71976 6.61314L9.80206 6.58865ZM8.49534 7.19326C8.72743 7.03871 9.04144 7.10127 9.196 7.33354C9.35055 7.56563 9.28799 7.87964 9.05572 8.0342C8.72424 8.25536 8.43171 8.52693 8.19098 8.83569C7.9522 9.1425 7.76011 9.48984 7.62706 9.86609C7.53454 10.1287 7.24624 10.2665 6.98365 10.174C6.72107 10.0814 6.58326 9.79313 6.67578 9.53054C6.84496 9.05315 7.09062 8.60941 7.39724 8.21557C7.70793 7.8173 8.07907 7.4708 8.49534 7.19326ZM12.7209 20.1824V19.4056C12.7209 18.6239 12.8809 17.8913 13.1918 17.2271L13.2046 17.1979C13.5231 16.5295 13.9957 15.9345 14.6139 15.4326C15.2543 14.9126 15.7786 14.2507 16.1384 13.4945C16.4837 12.7693 16.6773 11.9565 16.6773 11.0978C16.6773 9.55562 16.0533 8.16048 15.0451 7.15246C14.0353 6.14231 12.64 5.51848 11.098 5.51848C9.55584 5.51848 8.16069 6.14249 7.15267 7.1507C6.14253 8.16048 5.51869 9.55581 5.51869 11.0978C5.51869 11.9565 5.71237 12.7695 6.05758 13.4945C6.41743 14.2507 6.94172 14.9124 7.58211 15.4326C8.20012 15.9341 8.67332 16.5294 8.99137 17.1979C9.31069 17.8689 9.47513 18.6114 9.47513 19.4056V20.1825C9.47513 20.2482 9.49874 20.3085 9.53751 20.3537L9.55267 20.3684C9.60007 20.4158 9.66633 20.4459 9.73859 20.4459H12.4576C12.5298 20.4459 12.5961 20.4158 12.6435 20.3684C12.6909 20.321 12.7211 20.2547 12.7211 20.1825L12.7209 20.1824Z" fill="black"/>
</svg>
