<svg width="21" height="20" viewBox="0 0 21 20" fill="none" xmlns="http://www.w3.org/2000/svg">
<path d="M15.725 19.5004H5.2V7.50039L11.85 0.900391L12.7 1.75039C12.8 1.85039 12.8833 1.98772 12.95 2.16239C13.0167 2.33772 13.05 2.50039 13.05 2.65039V2.90039L12 7.50039H18.7C19.1667 7.50039 19.5833 7.68372 19.95 8.05039C20.3167 8.41706 20.5 8.83372 20.5 9.30039V10.9254C20.5 11.0254 20.4873 11.1377 20.462 11.2624C20.4373 11.3877 20.4083 11.5004 20.375 11.6004L17.5 18.3504C17.3667 18.6837 17.1293 18.9587 16.788 19.1754C16.446 19.3921 16.0917 19.5004 15.725 19.5004ZM6.7 18.0004H15.725C15.7917 18.0004 15.8627 17.9797 15.938 17.9384C16.0127 17.8964 16.075 17.8337 16.125 17.7504L19 11.0004V9.30039C19 9.21706 18.971 9.14606 18.913 9.08739C18.8543 9.02939 18.7833 9.00039 18.7 9.00039H10.1L11.35 3.52539L6.7 8.15039V18.0004ZM5.2 7.50039V9.00039H2V18.0004H5.2V19.5004H0.5V7.50039H5.2Z" fill="black"/>
</svg>
