<svg width="25" height="26" viewBox="0 0 25 26" fill="none" xmlns="http://www.w3.org/2000/svg">
<path d="M11.0168 16.2741L5.26891 14.2519L1.14958 15.8648C0.862185 15.9772 0.59874 15.9451 0.359244 15.7685C0.119748 15.592 0 15.3593 0 15.0704V2.43148C0 2.23889 0.0520505 2.0662 0.156151 1.91341C0.259614 1.76126 0.39916 1.65309 0.57479 1.58889L5.26891 0L11.0168 2.02222L15.1361 0.409259C15.4235 0.296914 15.687 0.320988 15.9265 0.481482C16.166 0.641976 16.2857 0.874692 16.2857 1.17963V13.8667C16.2857 14.0753 16.2298 14.2519 16.1181 14.3963C16.0063 14.5407 15.8546 14.6451 15.663 14.7093L11.0168 16.2741ZM10.2983 14.5167V3.25L5.9874 1.73333V13L10.2983 14.5167ZM11.7353 14.5167L14.8487 13.4815V2.07037L11.7353 3.25V14.5167ZM1.43697 14.2037L4.55042 13V1.73333L1.43697 2.79259V14.2037Z" fill="black"/>
<path d="M6.78843 15.6091C6.79181 15.6725 6.79715 15.7358 6.80443 15.799L4.6977 17.398L4.34799 17.6635L4.56599 18.0446L6.76935 21.8964L6.99036 22.2828L7.39971 22.108L9.83947 21.0662C10.011 21.1905 10.1914 21.3101 10.3807 21.4253C10.5729 21.5425 10.7667 21.6425 10.9618 21.724L11.3059 24.361L11.3627 24.7963H11.8017H16.2084H16.6474L16.7042 24.361L17.0499 21.7114C17.2354 21.6289 17.4182 21.5351 17.5983 21.4301L17.5988 21.4298C17.785 21.321 17.9681 21.2003 18.1483 21.068L20.561 22.1073L20.9711 22.284L21.1928 21.8964L23.3962 18.0446L23.6142 17.6635L23.2645 17.398L21.1539 15.796C21.163 15.7192 21.1697 15.6451 21.1737 15.574C21.1825 15.4288 21.187 15.2869 21.187 15.1481V14.7389C21.187 14.669 21.1834 14.5975 21.1766 14.5247L23.313 12.8978L23.6627 12.6315L23.4434 12.2506L21.2401 8.42278L21.021 8.04219L20.6153 8.21032L18.1526 9.23094C17.9761 9.10048 17.7998 8.983 17.6235 8.87904L17.6231 8.87882C17.4447 8.77378 17.2535 8.67642 17.0501 8.58637L16.7042 5.93531L16.6474 5.5H16.2084H11.8017H11.3627L11.3059 5.93531L10.9602 8.58518C10.7702 8.66984 10.5802 8.76758 10.3901 8.87792C10.1972 8.98925 10.0132 9.10724 9.83853 9.23202L7.39623 8.21092L6.98979 8.04099L6.77003 8.42278L4.56666 12.2506L4.34704 12.6321L4.6977 12.8983L6.80661 14.499C6.79825 14.5706 6.79216 14.6413 6.78843 14.7113C6.77968 14.8637 6.77521 15.0094 6.77521 15.1481C6.77521 15.3018 6.77962 15.4555 6.78843 15.6091ZM6.78843 15.6091C6.78845 15.6095 6.78847 15.6098 6.78849 15.6102L7.28766 15.5815L6.78837 15.608C6.78839 15.6084 6.78841 15.6087 6.78843 15.6091ZM15.6863 16.8418C15.2221 17.3084 14.6714 17.537 14.005 17.537C13.3387 17.537 12.788 17.3084 12.3238 16.8418C11.8595 16.3751 11.6311 15.8204 11.6311 15.1481C11.6311 14.4759 11.8595 13.9212 12.3238 13.4545C12.788 12.9879 13.3387 12.7593 14.005 12.7593C14.6714 12.7593 15.2221 12.9879 15.6863 13.4545C16.1506 13.9212 16.379 14.4759 16.379 15.1481C16.379 15.8204 16.1506 16.3751 15.6863 16.8418Z" fill="black" stroke="white"/>
</svg>
