<svg width="21" height="21" viewBox="0 0 21 21" fill="none" xmlns="http://www.w3.org/2000/svg">
<path d="M11.1 15.45L14.6 11.95C14.7833 11.7667 14.9167 11.5625 15 11.3375C15.0833 11.1125 15.125 10.875 15.125 10.625C15.125 10.0917 14.9375 9.6375 14.5625 9.2625C14.1875 8.8875 13.7333 8.7 13.2 8.7C12.8667 8.7 12.5333 8.80833 12.2 9.025C11.8667 9.24167 11.5 9.59167 11.1 10.075C10.7 9.59167 10.3333 9.24167 10 9.025C9.66667 8.80833 9.33333 8.7 9 8.7C8.46667 8.7 8.0125 8.8875 7.6375 9.2625C7.2625 9.6375 7.075 10.0917 7.075 10.625C7.075 10.875 7.11667 11.1125 7.2 11.3375C7.28333 11.5625 7.41667 11.7667 7.6 11.95L11.1 15.45ZM11.975 19.575C11.675 19.875 11.3125 20.025 10.8875 20.025C10.4625 20.025 10.1 19.875 9.8 19.575L0.425 10.2C0.258333 10.0333 0.145833 9.85833 0.0875001 9.675C0.0291668 9.49167 0 9.3 0 9.1V1.5C0 1.06667 0.141667 0.708333 0.425 0.425C0.708333 0.141667 1.06667 0 1.5 0H9.1C9.3 0 9.5 0.0291668 9.7 0.0875001C9.9 0.145833 10.0833 0.258333 10.25 0.425L19.575 9.75C19.8917 10.0667 20.05 10.4375 20.05 10.8625C20.05 11.2875 19.8917 11.6583 19.575 11.975L11.975 19.575ZM10.95 18.55L18.55 10.95L9.1 1.5H1.5V9.1L10.95 18.55ZM4.125 5.4C4.475 5.4 4.77917 5.27083 5.0375 5.0125C5.29583 4.75417 5.425 4.45 5.425 4.1C5.425 3.75 5.29583 3.44583 5.0375 3.1875C4.77917 2.92917 4.475 2.8 4.125 2.8C3.775 2.8 3.47083 2.92917 3.2125 3.1875C2.95417 3.44583 2.825 3.75 2.825 4.1C2.825 4.45 2.95417 4.75417 3.2125 5.0125C3.47083 5.27083 3.775 5.4 4.125 5.4Z" fill="#222222"/>
</svg>
