<svg width="38" height="38" viewBox="0 0 38 38" fill="none" xmlns="http://www.w3.org/2000/svg">
<path d="M7.05 29.6C8.75 28.3333 10.6 27.3333 12.6 26.6C14.6 25.8667 16.7333 25.5 19 25.5C21.2667 25.5 23.4 25.8667 25.4 26.6C27.4 27.3333 29.25 28.3333 30.95 29.6C32.1833 28.2333 33.1667 26.65 33.9 24.85C34.6333 23.05 35 21.1 35 19C35 14.5667 33.442 10.7913 30.326 7.674C27.2087 4.558 23.4333 3 19 3C14.5667 3 10.792 4.558 7.676 7.674C4.55867 10.7913 3 14.5667 3 19C3 21.1 3.36667 23.05 4.1 24.85C4.83333 26.65 5.81667 28.2333 7.05 29.6ZM19 20.5C17.1667 20.5 15.6253 19.8747 14.376 18.624C13.1253 17.3747 12.5 15.8333 12.5 14C12.5 12.1667 13.1253 10.6253 14.376 9.376C15.6253 8.12533 17.1667 7.5 19 7.5C20.8333 7.5 22.3747 8.12533 23.624 9.376C24.8747 10.6253 25.5 12.1667 25.5 14C25.5 15.8333 24.8747 17.3747 23.624 18.624C22.3747 19.8747 20.8333 20.5 19 20.5ZM19 38C16.3667 38 13.892 37.5 11.576 36.5C9.25867 35.5 7.25 34.15 5.55 32.45C3.85 30.75 2.5 28.7413 1.5 26.424C0.5 24.108 0 21.6333 0 19C0 16.3667 0.5 13.8913 1.5 11.574C2.5 9.258 3.85 7.25 5.55 5.55C7.25 3.85 9.25867 2.5 11.576 1.5C13.892 0.5 16.3667 0 19 0C21.6333 0 24.1087 0.5 26.426 1.5C28.742 2.5 30.75 3.85 32.45 5.55C34.15 7.25 35.5 9.258 36.5 11.574C37.5 13.8913 38 16.3667 38 19C38 21.6333 37.5 24.108 36.5 26.424C35.5 28.7413 34.15 30.75 32.45 32.45C30.75 34.15 28.742 35.5 26.426 36.5C24.1087 37.5 21.6333 38 19 38ZM19 35C20.8 35 22.542 34.708 24.226 34.124C25.9087 33.5413 27.4 32.7333 28.7 31.7C27.4 30.7 25.9247 29.9167 24.274 29.35C22.6247 28.7833 20.8667 28.5 19 28.5C17.1333 28.5 15.3753 28.7753 13.726 29.326C12.0753 29.8753 10.6 30.6667 9.3 31.7C10.6 32.7333 12.0913 33.5413 13.774 34.124C15.458 34.708 17.2 35 19 35ZM19 17.5C20 17.5 20.8333 17.1667 21.5 16.5C22.1667 15.8333 22.5 15 22.5 14C22.5 13 22.1667 12.1667 21.5 11.5C20.8333 10.8333 20 10.5 19 10.5C18 10.5 17.1667 10.8333 16.5 11.5C15.8333 12.1667 15.5 13 15.5 14C15.5 15 15.8333 15.8333 16.5 16.5C17.1667 17.1667 18 17.5 19 17.5Z" fill="black"/>
</svg>
