<svg width="48" height="48" viewBox="0 0 48 48" fill="none" xmlns="http://www.w3.org/2000/svg">
<circle cx="24" cy="24" r="24" fill="#D9D9D9"/>
<path d="M24 23.4004C22.0667 23.4004 20.4167 22.7084 19.05 21.3244C17.6833 19.9417 17 18.3004 17 16.4004C17 14.4671 17.6833 12.8171 19.05 11.4504C20.4167 10.0837 22.0667 9.40039 24 9.40039C25.9333 9.40039 27.5833 10.0837 28.95 11.4504C30.3167 12.8171 31 14.4671 31 16.4004C31 18.3004 30.3167 19.9417 28.95 21.3244C27.5833 22.7084 25.9333 23.4004 24 23.4004ZM9 38.6004V34.1504C9 33.1837 9.26667 32.2837 9.8 31.4504C10.3333 30.6171 11.05 29.9671 11.95 29.5004C13.9167 28.5337 15.9087 27.8084 17.926 27.3244C19.942 26.8417 21.9667 26.6004 24 26.6004C26.0333 26.6004 28.0587 26.8417 30.076 27.3244C32.092 27.8084 34.0833 28.5337 36.05 29.5004C36.95 29.9671 37.6667 30.6171 38.2 31.4504C38.7333 32.2837 39 33.1837 39 34.1504V38.6004H9Z" fill="black"/>
</svg>
