<svg width="20" height="20" viewBox="0 0 20 20" fill="none" xmlns="http://www.w3.org/2000/svg">
<path d="M0 15V1.05C0 0.816667 0.108333 0.583333 0.325 0.35C0.541667 0.116667 0.766667 0 1 0H13.975C14.225 0 14.4583 0.1125 14.675 0.3375C14.8917 0.5625 15 0.8 15 1.05V9.95C15 10.1833 14.8917 10.4167 14.675 10.65C14.4583 10.8833 14.225 11 13.975 11H4L0 15ZM5.025 16C4.79167 16 4.5625 15.8833 4.3375 15.65C4.1125 15.4167 4 15.1833 4 14.95V12.5H16.5V4H19C19.2333 4 19.4583 4.11667 19.675 4.35C19.8917 4.58333 20 4.825 20 5.075V19.975L16.025 16H5.025ZM13.5 1.5H1.5V11.375L3.375 9.5H13.5V1.5Z" fill="black"/>
</svg>
