<svg width="96" height="96" viewBox="0 0 96 96" fill="none" xmlns="http://www.w3.org/2000/svg">
<g filter="url(#filter0_d_306_40792)">
<path d="M48 47C49.9333 47 51.584 46.3173 52.952 44.952C54.3173 43.584 55 41.9333 55 40C55 38.0667 54.3173 36.416 52.952 35.048C51.584 33.6827 49.9333 33 48 33C46.0667 33 44.416 33.6827 43.048 35.048C41.6827 36.416 41 38.0667 41 40C41 41.9333 41.6827 43.584 43.048 44.952C44.416 46.3173 46.0667 47 48 47ZM48 87.2C37.6 78.1333 29.8333 69.7333 24.7 62C19.5667 54.2667 17 47.2 17 40.8C17 31.1333 20.1173 23.416 26.352 17.648C32.584 11.8827 39.8 9 48 9C56.2 9 63.4173 11.8827 69.652 17.648C75.884 23.416 79 31.1333 79 40.8C79 47.2 76.4333 54.2667 71.3 62C66.1667 69.7333 58.4 78.1333 48 87.2Z" fill="#41A642"/>
<path d="M53.3052 45.3059L53.3059 45.3052C54.7648 43.8434 55.5 42.0657 55.5 40C55.5 37.9343 54.7648 36.1566 53.3059 34.6948L53.3052 34.6941C51.8434 33.2352 50.0657 32.5 48 32.5C45.9343 32.5 44.1566 33.2352 42.6948 34.6941L42.6941 34.6948C41.2352 36.1566 40.5 37.9343 40.5 40C40.5 42.0657 41.2352 43.8434 42.6941 45.3052L42.6948 45.3059C44.1566 46.7648 45.9343 47.5 48 47.5C50.0657 47.5 51.8434 46.7648 53.3052 45.3059ZM48 86.5361C37.7843 77.5961 30.1624 69.325 25.1166 61.7235C20.0144 54.037 17.5 47.0666 17.5 40.8C17.5 31.2515 20.5738 23.6749 26.6916 18.015C32.8347 12.3318 39.9307 9.5 48 9.5C56.0692 9.5 63.1665 12.3318 69.3124 18.015C75.4275 23.6748 78.5 31.2514 78.5 40.8C78.5 47.0666 75.9856 54.037 70.8834 61.7235C65.8376 69.325 58.2157 77.5961 48 86.5361Z" stroke="black"/>
</g>
<circle cx="48" cy="40" r="8" fill="black"/>
<defs>
<filter id="filter0_d_306_40792" x="13" y="9" width="70" height="86.2031" filterUnits="userSpaceOnUse" color-interpolation-filters="sRGB">
<feFlood flood-opacity="0" result="BackgroundImageFix"/>
<feColorMatrix in="SourceAlpha" type="matrix" values="0 0 0 0 0 0 0 0 0 0 0 0 0 0 0 0 0 0 127 0" result="hardAlpha"/>
<feOffset dy="4"/>
<feGaussianBlur stdDeviation="2"/>
<feComposite in2="hardAlpha" operator="out"/>
<feColorMatrix type="matrix" values="0 0 0 0 0 0 0 0 0 0 0 0 0 0 0 0 0 0 0.25 0"/>
<feBlend mode="normal" in2="BackgroundImageFix" result="effect1_dropShadow_306_40792"/>
<feBlend mode="normal" in="SourceGraphic" in2="effect1_dropShadow_306_40792" result="shape"/>
</filter>
</defs>
</svg>
