<svg width="46" height="54" viewBox="0 0 46 54" fill="none" xmlns="http://www.w3.org/2000/svg">
<g filter="url(#filter0_d_109_6596)">
<path d="M23 22.4167C24.1277 22.4167 25.0906 22.0184 25.8886 21.222C26.6851 20.424 27.0833 19.4611 27.0833 18.3333C27.0833 17.2056 26.6851 16.2427 25.8886 15.4447C25.0906 14.6482 24.1277 14.25 23 14.25C21.8722 14.25 20.9093 14.6482 20.1113 15.4447C19.3148 16.2427 18.9166 17.2056 18.9166 18.3333C18.9166 19.4611 19.3148 20.424 20.1113 21.222C20.9093 22.0184 21.8722 22.4167 23 22.4167ZM23 45.8667C16.9333 40.5778 12.4027 35.6778 9.40829 31.1667C6.41385 26.6556 4.91663 22.5333 4.91663 18.8C4.91663 13.1611 6.73507 8.65933 10.372 5.29467C14.0073 1.93156 18.2166 0.25 23 0.25C27.7833 0.25 31.9934 1.93156 35.6303 5.29467C39.2656 8.65933 41.0833 13.1611 41.0833 18.8C41.0833 22.5333 39.5861 26.6556 36.5916 31.1667C33.5972 35.6778 29.0666 40.5778 23 45.8667Z" fill="#1E95BB"/>
</g>
<circle cx="23" cy="18.3337" r="4.66667" fill="white"/>
<defs>
<filter id="filter0_d_109_6596" x="0.916626" y="0.25" width="44.1666" height="53.6162" filterUnits="userSpaceOnUse" color-interpolation-filters="sRGB">
<feFlood flood-opacity="0" result="BackgroundImageFix"/>
<feColorMatrix in="SourceAlpha" type="matrix" values="0 0 0 0 0 0 0 0 0 0 0 0 0 0 0 0 0 0 127 0" result="hardAlpha"/>
<feOffset dy="4"/>
<feGaussianBlur stdDeviation="2"/>
<feComposite in2="hardAlpha" operator="out"/>
<feColorMatrix type="matrix" values="0 0 0 0 0 0 0 0 0 0 0 0 0 0 0 0 0 0 0.25 0"/>
<feBlend mode="normal" in2="BackgroundImageFix" result="effect1_dropShadow_109_6596"/>
<feBlend mode="normal" in="SourceGraphic" in2="effect1_dropShadow_109_6596" result="shape"/>
</filter>
</defs>
</svg>
