<svg width="56" height="59" viewBox="0 0 56 59" fill="none" xmlns="http://www.w3.org/2000/svg">
<circle cx="28" cy="23.3359" r="7" fill="black"/>
<g filter="url(#filter0_d_306_40794)">
<path d="M27.9998 27.4167C29.1276 27.4167 30.0905 27.0184 30.8885 26.222C31.6849 25.424 32.0832 24.4611 32.0832 23.3333C32.0832 22.2056 31.6849 21.2427 30.8885 20.4447C30.0905 19.6482 29.1276 19.25 27.9998 19.25C26.8721 19.25 25.9092 19.6482 25.1112 20.4447C24.3147 21.2427 23.9165 22.2056 23.9165 23.3333C23.9165 24.4611 24.3147 25.424 25.1112 26.222C25.9092 27.0184 26.8721 27.4167 27.9998 27.4167ZM27.9998 50.8667C21.9332 45.5778 17.4026 40.6778 14.4082 36.1667C11.4137 31.6556 9.9165 27.5333 9.9165 23.8C9.9165 18.1611 11.7349 13.6593 15.3718 10.2947C19.0072 6.93156 23.2165 5.25 27.9998 5.25C32.7832 5.25 36.9933 6.93156 40.6302 10.2947C44.2655 13.6593 46.0832 18.1611 46.0832 23.8C46.0832 27.5333 44.5859 31.6556 41.5915 36.1667C38.5971 40.6778 34.0665 45.5778 27.9998 50.8667Z" fill="#FFC93C"/>
<path d="M31.2417 26.5759L31.2424 26.5752C32.1324 25.6834 32.5832 24.5935 32.5832 23.3333C32.5832 22.0732 32.1324 20.9832 31.2424 20.0915L31.2417 20.0908C30.3499 19.2007 29.26 18.75 27.9998 18.75C26.7397 18.75 25.6497 19.2007 24.758 20.0908L24.7573 20.0915C23.8672 20.9832 23.4165 22.0732 23.4165 23.3333C23.4165 24.5935 23.8672 25.6834 24.7573 26.5752L24.758 26.5759C25.6497 27.4659 26.7397 27.9167 27.9998 27.9167C29.26 27.9167 30.3499 27.4659 31.2417 26.5759ZM27.9998 50.2024C22.1177 45.0405 17.7318 40.2695 14.8247 35.8901C11.8614 31.4259 10.4165 27.4 10.4165 23.8C10.4165 18.2793 12.1914 13.9182 15.7114 10.6617C19.2579 7.38073 23.3472 5.75 27.9998 5.75C32.6524 5.75 36.7425 7.38069 40.2905 10.6616C43.809 13.9181 45.5832 18.2792 45.5832 23.8C45.5832 27.4 44.1382 31.4259 41.1749 35.8901C38.2679 40.2695 33.882 45.0405 27.9998 50.2024Z" stroke="black"/>
</g>
<circle cx="28.0002" cy="23.3307" r="4.66667" fill="black"/>
<defs>
<filter id="filter0_d_306_40794" x="5.9165" y="5.25" width="44.1665" height="53.6172" filterUnits="userSpaceOnUse" color-interpolation-filters="sRGB">
<feFlood flood-opacity="0" result="BackgroundImageFix"/>
<feColorMatrix in="SourceAlpha" type="matrix" values="0 0 0 0 0 0 0 0 0 0 0 0 0 0 0 0 0 0 127 0" result="hardAlpha"/>
<feOffset dy="4"/>
<feGaussianBlur stdDeviation="2"/>
<feComposite in2="hardAlpha" operator="out"/>
<feColorMatrix type="matrix" values="0 0 0 0 0 0 0 0 0 0 0 0 0 0 0 0 0 0 0.25 0"/>
<feBlend mode="normal" in2="BackgroundImageFix" result="effect1_dropShadow_306_40794"/>
<feBlend mode="normal" in="SourceGraphic" in2="effect1_dropShadow_306_40794" result="shape"/>
</filter>
</defs>
</svg>
